
SVGOMG
Powered by SVGO v2.6.1

Open SVG
Paste markup
Demo
Contribute
About

14.48k → 5.78k 39.95%
<svg xmlns="http://www.w3.org/2000/svg" viewBox="0 0 49.933 50.125" height="189.449" width="188.722">
  <defs>
    <clipPath clipPathUnits="userSpaceOnUse" id="a">
      <path d="M0 0h1181v1181H0V0"/>
    </clipPath>
  </defs>
  <g clip-path="url(#a)" transform="matrix(0 -.0805 -.07547 0 69.57 73.006)" stroke-width="3.394" stroke="#dbdbdb" stroke-miterlimit="10">
    <path d="M573 680V501v180Zm0-179v180-190Zm0 180V491v200Zm0-190v200-201Zm0 200V490v202Zm0-201v202-212Zm0 202V480v222Zm0-212v222-223Zm0 222V479v224Zm0-223v224-234Zm0 224V469v244Zm0-234v244-245Zm0 244V468v246Zm0-245v246-256Zm0 246V458v266Zm0-256v266zm0 266V458zm0-266v266l-1-277zm0 266-1-277v288zm-1-277v288zm0 288V447zm0-288v288l-1-298zm0 288-1-298v308zm-1-299v309zm0 0v309-308Zm0 0v309-319Zm0 309V426v330Zm0-319v330zm0 330V426zm0-330v330l-1-340zm0 330-1-340v350zm-1-340v350zm0 350V416zm0-350v350l-1-360zm0 350-1-360v370zm-1-360v370zm0 370V406zm0-370v370l-1-380zm0 370-1-380v390zm-1-380v390zm0 390V396zm0-390v390l-1-400zm0 390-1-400v410zm-1-400v410zm0 410V386zm0-410v410l-1-419zm0 410-1-419v428zm-1-419v428zm0 428V377zm0-428v428l-2-437zm0 428-2-437v446zm-2-437v446zm0 446V368zm0-446v446-449Zm0 446V365v452Zm0-449v136-137Zm0 136V364v127Zm0 190v126zm0 0v126-137Zm0-327v127-128Zm0 127V363v118Zm0 200v126-116Zm0 126V701v117Zm0-454v118l-1-119zm0 118-1-119v109zm0 220v117l-1-107zm0 117-1-107v109zm-1-456v109-112Zm0 109V359v102Zm0 240v109-99zm0 109v-99 102zm0-99v102zm0 102V721zm0-464v102zm0 102V359v101Zm0-102v101-104Zm0 101V356v95zm0 261v102-92zm0 102v-92 95zm0-467v95l-1-99zm0 95-1-99v90zm0 280v95l-1-86zm0 95-1-86v90zm-1-86v90-85zm0 90v-85 87zm0-478v90-92zm0 90v-92 87zm0-92v87l-1-89zm0 87-1-89v84zm0 308v87l-1-82zm0 87-1-82v84zm-1-484v84l-1-88zm0 84-1-88v79zm0 318v84l-1-75zm0 84-1-75v79zm-1-75v79-75zm0 79v-75 77zm0-494v79-81zm0 79v-81 77zm0-81v77l-1-80zm0 77-1-80v74zm0 344v77l-1-72zm0 77-1-72v75zm-1-72v75l-1-66zm0 75-1-66v71zm0-504v74l-1-79zm0 74-1-79v71zm-1 435v-71zm0-71v71zm0-443v71zm0 71v-71 70zm0-71v70l-1-75zm0 70-1-75v67zm0 373v71l-1-62zm0 71-1-62v67zm-1-62v67-63zm0 67v-63 65zm0-524v67-70zm0 67v-70 66zm0-70v66l-1-68zm0 66-1-68v63zm0 398v65l-1-61zm0 65-1-61v64zm-1-61v64l-1-57zm0 64-1-57v62zm0-534v63l-1-68zm0 63-1-68v62zm-1-68v62-63zm0 62v-63 61zm0 420v62-61zm0 62v-61 62zm0-545v61l-2-66zm0 61-2-66v59zm0 423v62l-2-54zm0 62-2-54v59zm-2-54v59-58zm0 59v-58 59zm0-556v59-60zm0 59v-60 59zm0-60v59l-1-63zm0 59-1-63v56zm0 440v59l-1-52zm0 59-1-52v56zm-1-562v56l-1-58zm0 56-1-58v56zm0 454v56l-1-54zm0 56-1-54v56zm-1-568v56l-1-59zm0 56-1-59v54zm0 458v56l-1-51zm0 56-1-51v54zm-1-573v54l-1-57zm0 54-1-57v53zm0 468v54l-1-50zm0 54-1-50v53zm-1-579v53l-1-55zm0 53-1-55v53zm0 476v53l-1-51zm0 53-1-51v53zm-1-584v53l-1-57zm0 53-1-57v51zm0 480v53l-1-47zm0 53-1-47v51zm-1-590v51-52zm0 51v-52 51zm0 492v51-50zm0 51v-50 51zm0-595v51l-2-55zm0 51-2-55v49zm0 494v51l-2-46zm0 51-2-46v50zm-2-551v-49zm0-49v49zm0 555v49zm0 0v49-50zm0-555v49l-2-53zm0 49-2-53v48zm0 506v49l-2-44zm0 49-2-44v48zm-2-608v48l-1-49zm0 48-1-49v48zm0 516v48l-1-47zm0 48-1-47v48zm-1-613v48l-1-51zm0 48-1-51v47zm0 518v48l-1-44zm0 48-1-44v47zm-1-617v47l-1-49zm0 47-1-49v48zm0 526v47l-1-46zm0 47-1-46v47zm-1-622v48l-1-50zm0 48-1-50v47zm0 528v47l-1-44zm0 47-1-44v47zm-1-625v47l-1-48zm0 47-1-48v46zm0 534v47l-1-45zm0 47-1-45v46zm-1-629v46l-1-48zm0 46-1-48v46zm0 538v46l-1-44zm0 46-1-44v46zm-1-632v46l-1-48zm0 46-1-48v45zm0 542v46l-1-44zm0 46-1-44v46zm-1-636v45l-1-46zm0 45-1-46v45zm0 547v46l-1-44zm0 46-1-44v45zm-1-639v45l-2-47zm0 45-2-47v45zm0 550v45l-2-43zm0 45-2-43v44zm-2-642v45zm0 45v-45 44zm0 554v44-43zm0 44v-43 44zm0-643v44l-2-46zm0 44-2-46v44zm0 556v44l-2-42zm0 44-2-42v44zm-2-602v-44zm0-44v44zm0 648v-44zm0-44v44zm0-604v44l-3-46zm0 44-3-46v44zm0 560v44l-3-42zm0 44-3-42v44zm-3-606v-44zm0-44v44zm0 652v-44zm0-44v44zm0-608v44l-2-45zm0 44-2-45v43zm0 564v44l-2-42zm0 44-2-42v43zm-2-610v-43zm0-43v43zm0 654v-43zm0-43v43zm0-611v43l-2-44zm0 43-2-44v43zm0 568v43l-2-42zm0 43-2-42v43zm-2-655v43l-1-43zm0 43-1-43v43zm0 570v43l-1-43zm0 43-1-43v43zm-1-656v43l-1-43zm0 43-1-43v43zm0 570v43l-1-43zm0 43-1-43v43zm-1-43v43l-1-43zm0 43-1-43v43zm0-656v43l-1-43zm0 43-1-43v43zm-1-43v43l-2-43zm0 43-2-43v43zm0 570v43l-2-43zm0 43-2-43v43zm-2-656v43l-2-43zm0 43-2-43v44zm0 570v43l-2-44zm0 43-2-44v44zm-2-656v44l-2-44zm0 44-2-44v45zm0 568v44l-2-45zm0 44-2-45v45zm-2-656v45l-2-45zm0 45-2-45v46zm0 566v45l-2-47zm0 45-2-47v47zm-2-656v46l-2-46zm0 46-2-46v49zm0 563v47l-2-49zm0 47-2-49v49zm-2-656v49l-1-49zm0 49-1-49v50zm0 558v49l-1-50zm0 49-1-50v50zm-1-656v50l-1-50zm0 50-1-50v51zm0 556v50l-1-51zm0 50-1-51v51zm-1-656v51l-3-51zm0 51-3-51v54zm0 554v51l-3-55zm0 51-3-55v55zm-3-656v54l-2-54zm0 54-2-54v58zm0 547v55l-2-58zm0 55-2-58v57zm-2-656v58l-2-57zm0 58-2-57v61zm0 540v57l-2-61zm0 57-2-61v61zm-2-654v61l-2-61zm0 61-2-61v66zm0 532v61l-2-66zm0 61-2-66v66zm-2-654v66l-2-66zm0 66-2-66v71zm0 522v66l-2-71zm0 66-2-71v71zm-2-583v-71zm0-71v71zm0 582v72zm0 0v72-71zm0-582v71l-1-71zm0 71-1-71v77zm0 511v72l-1-77zm0 72-1-77v77zm-1-654v77l-2-77zm0 77-2-77v83zm0 500v77l-2-83zm0 77-2-83v83zm-2-654v83l-2-83zm0 83-2-83v89zm0 488v83l-2-89zm0 83-2-89v89zm-2-654v89l-2-88zm0 89-2-88v95zm0 476v89l-2-96zm0 89-2-96v95zm-2-653v95l-1-95zm0 95-1-95v102zm0 462v95l-1-102zm0 95-1-102v102zm-1-652v102l-2-102zm0 102-2-102v109zm0 448v102l-2-110zm0 102-2-110v110zm-2-652v109l-1-109zm0 109-1-109v117zm0 433v110l-1-117zm0 110-1-117v117zm-1-535V265zm0-117v117zm0 652V800zm0-117v117zm0-535v117l-1-117zm0 117-1-117v125zm0 418v117l-1-126zm0 117-1-126v126zm-1-652v125l-2-125zm0 125-2-125v134zm0 401v126l-2-134zm0 126-2-134v133zm-2-652v134l-1-133zm0 134-1-133v142zm0 384v133l-1-142zm0 133-1-142v142zm-1-650v142l-1-142zm0 142-1-142v151zm0 366v142l-1-151zm0 142-1-151v151zm-1-650v151l-1-151zm0 151-1-151v160zm0 348v151l-1-160zm0 151-1-160v160zm-1-650v160zm0 160V266v169Zm0 320v170zm0 0v170-160Zm0-480v169l-1-169zm0 169-1-169v179zm0 311v170l-1-179zm0 170-1-179v179zm-1-650v179l-1-179zm0 179-1-179v189zm0 292v179l-1-189zm0 179-1-189v189zm-1-650v189zm0 189V266v199Zm0 262v199zm0 0v199-189Zm0-451v199l-1-199zm0 199-1-199v209zm0 252v199l-1-209zm0 199-1-209v209zm-1-650v209zm0 209V266v219Zm0 222v219zm0 0v219-209Zm0-431v219zm0 219V266v229Zm0 202v229zm0 0v229-219Zm0-421v229zm0 229V266v235Zm0 13v166-173Zm0 166V501v179Zm0 6v236zm0 0v236-229Zm0-414v650l-2-649zm0 650-2-649v648zm-2-649v648l-11-646Zm0 648-11-646v644zm-11-646v644l-11-642Zm0 644-11-642v639zm-11-642v639l-11-635Zm0 639-11-635v632zm-11-635v632l-11-629Zm0 632-11-629v626zm-11-629v626l-11-622Zm0 626-11-622v618zm-11-622v618l-10-613Zm0 618-10-613v608zm-10-613v608l-11-604Zm0 608-11-604v599zm-11-604v599l-10-593Zm0 599-10-593v588zm-10-593v588l-9-582zm0 588-9-582v576zm-9-582v576l-10-570Zm0 576-10-570v564zm-10-570v564l-9-558zm0 564-9-558v552zm-9-558v552l-9-545zm0 552-9-545v538zm-9-545v538l-22-538Zm0 538-22-538v538zm-22-538v79l-4-80zm0 79-4-80v74zm0 0v380l-4-359zm0 380-4-359v338zm-4-359v338l-4-317zm0 338-4-317v296zm-4-317v296l-3-275zm0 296-3-275v254zm-3-275v254l-3-233zm0 254-3-233v212zm-3-233v212l-2-191zm0 212-2-191v170zm-2-191v170l-2-149zm0 170-2-149v128zm12-355v74l-15-74zm0 74-15-74v54zm4 386v79l-19-53zm0 79-19-53v54zm-18-333v128l-2-107zm0 128-2-107v85zm-2-22v-63zm0-21v-42l-1 21zm0 21v-85 22zm1-312v54l-3-55zm0 54-3-55v52zm0 432v54l-3-51zm0 54-3-51v52zm-3-541v52l-3-53zm0 52-3-53v49zm0 438v52l-3-48zm0 52-3-48v49zm-3-543v49l-3-49zm0 49-3-49v45zm0 446v49l-3-45zm0 49-3-45v45zm-3-544v45l-3-45zm0 45-3-45v41zm0 454v45l-3-41zm0 45-3-41v40zm-3-544v41l-3-40zm0 41-3-40v37zm0 462v40l-3-36zm0 40-3-36v35zm-3-542v37l-2-36zm0 37-2-36v32zm0 469v35l-3-32zm0 35-3-32v31zm-3-31v30zm0 0v30-31zm1-509v32l-1-31zm0 32-1-31v30zm-1-31v30l-2-29zm0 30-2-29v28zm0 478v30l-2-29zm0 30-2-29v27zm-2-29v27l-1-26zm0 27-1-26v26zm0-535v28l-1-27zm0 28-1-27v26zm-1-27v26l-1-25zm0 26-1-25v24zm0 482v26l-1-24zm0 26-1-24v22zm-1-24v22l-1-22zm0 22-1-22v21zm0-531v24l-1-23zm0 24-1-23v22zm-1-23v22l-1-20zm0 22-1-20v18zm0 486v21l-1-19zm0 21-1-19v18zm-1-19v18-17zm0 18v-17 16zm0-526v18-17zm0 18v-17 16zm0-17v16l-1-15zm0 16-1-15v13zm0 492v16l-1-14zm0 16-1-14v12zm-1-14v12-1zm0 12v-12zm0-521v13-11zm0 13v-11 10zm0-11v10l-1-9zm0 10-1-9v7zm0 497v11l-1-8zm0 11-1-8v6zm-1-8v6-1zm0 6v-6zm0-508v-5zm0-1v-4 1zm0 1v-7 2zm0 502v5-2zm0 5v-2zm0-2z" fill="#dbdbdb"/>
    <path d="m353 860-41 1m.115.256c-8.254 3.99-18.187.933-22.77-7.006-4.584-7.94-2.264-18.07 5.318-23.224M294 830l37-49m-45-444v0m1 .5a17.5 17.5 0 0 1 25.115-15.756M312 321l41 1m168.833 598a267.5 267.5 0 0 1-168.542-59.505m0-537.99A267.5 267.5 0 0 1 521.833 263M564 680.5c0 70.618-8.28 135.748-21.658 170.378-13.38 34.631-29.779 33.38-42.9-3.273-13.123-36.653-20.928-103.01-20.419-173.589" fill="none" stroke-linecap="round" stroke-linejoin="round"/>
    <path d="M521.5 263c10.754 0 21.249 15.003 30.065 42.98m0 0C565.59 350.49 573.962 423.254 574 500.975m0 179.525c0 77.907-8.376 150.904-22.435 195.52m0 0C542.75 903.996 532.255 919 521.5 919" fill="none" stroke-linecap="round" stroke-linejoin="round"/>
    <path d="M748 898v-10l91 10zm0-10 91 10-1-11z" fill="#dbdbdb" stroke-linecap="round"/>
    <path d="m875 770-7 8 18 2zm-7 8 18 2-8 7zm18 2-8 7 17 6zm-8 7 17 6-9 5zm17 6-9 5 15 9zm-9 5 15 9-10 3zm15 9-10 3 12 13zm-10 3 12 13h-10zm12 13h-10l10 15zm-10 0 10 15-11-1zm10 15-11-1 7 16zm-11-1 7 16-10-4zm7 16-10-4 2 18zm-10-4 2 18-9-6zm2 18-9-6-1 18zm-9-6-1 18-7-8zm-1 18-7-8-5 17zm-7-8-5 17-6-9zm-5 17-6-9-8 16zm-6-9-8 16-4-11zm-8 16-4-11-12 14zm-4-11-12 14-1-11zm29-139v-4 13zm0-4v13l-1-18zm0 13-1-18v20zm-1-18v20l-2-25zm0 20-2-25v31zm-2-25v31l-1-34zm0 31-1-34v37zm-1-34v37l-2-42zm0 37-2-42v47z" fill="#dbdbdb" stroke-linecap="round"/>
    <path d="M874 723v47l-2-50zm0 47-2-50v53zm-2-50v53l-3-57zm0 53-3-57v61zm-3-57v61l-2-64zm0 61-2-64v66zm-2-64v66l-5-70zm0 66-5-70v75zm-5-70v75l-2-77zm0 75-2-77v78zm-2-77v78l-5-71zm0 78-5-71v74zm-5-71v74l-8-62zm0 74-8-62v66zm-8-62v66l-9-54zm0 66-9-54v56zm-9-54v56l-9-44zm0 56-9-44v44zm-9-44v44l-8-31zm0 44-8-31v30zm-8-1-9-3v-15zm-9-3v-15l-7 10z" fill="#dbdbdb" stroke-linecap="round"/>
    <path d="M821 793v-30l-9 12z" fill="#dbdbdb" stroke-linecap="round"/>
    <path d="m858 700 9 6-70 81zm9 6-70 81 9 6z" fill="#dbdbdb" stroke-linecap="round"/>
    <path d="M859.85 707.665c21.449 15.105 26.59 44.738 11.485 66.186-15.105 21.448-44.738 26.59-66.186 11.484" fill="none" stroke-linecap="round" stroke-linejoin="round"/>
    <path d="m821 679-2-3-2 2z" fill="#dbdbdb" stroke-linecap="round"/>
    <path d="m819 676-2 2v-7zm-2 2v-7l-4 7zm0-7-4 7h-1zm-4 7 4-7v0z" fill="#dbdbdb" stroke-linecap="round"/>
    <path d="m817 671-5 7 4-8zm-5 7 4-8-5 8z" fill="#dbdbdb" stroke-linecap="round"/>
    <path d="m816 670-5 8 5-9zm-5 8 5-9-6 8z" fill="#dbdbdb" stroke-linecap="round"/>
    <path d="m816 669-6 8 5-8zm-6 8 5-8-6 8z" fill="#dbdbdb" stroke-linecap="round"/>
    <path d="m815 669-6 8 5-8zm-6 8 5-8-5 7z" fill="#dbdbdb" stroke-linecap="round"/>
    <path d="m814 669-5 7 4-7zm-5 7 4-7-5 6z" fill="#dbdbdb" stroke-linecap="round"/>
    <path d="m813 669-5 6 4-6zm-5 6 4-6-4 5z" fill="#dbdbdb" stroke-linecap="round"/>
    <path d="m812 669-4 5 3-5zm-4 5 3-5-3 4z" fill="#dbdbdb" stroke-linecap="round"/>
    <path d="m811 669-3 4 2-4zm-3 4 2-4-2 3zm2-3v0l-1 1zm0 0-1 1-1 1z" fill="#dbdbdb" stroke-linecap="round"/>
    <path d="m808 672 2-3v1z" fill="#dbdbdb" stroke-linecap="round"/>
    <path d="m819 676 2 3-4-1h-4" fill="none" stroke-linecap="round" stroke-linejoin="round"/>
    <path d="M813.095 677.982a4.5 4.5 0 1 1 4.488-6.373M817 671l2 5" fill="none" stroke-linecap="round" stroke-linejoin="round"/>
    <path d="m793 718-2-3-2 2z" fill="#dbdbdb" stroke-linecap="round"/>
    <path d="m791 715-2 2 1-6zm-2 2 1-6-5 6z" fill="#dbdbdb" stroke-linecap="round"/>
    <path d="m790 711-5 6 4-7zm-5 6 4-7-5 7z" fill="#dbdbdb" stroke-linecap="round"/>
    <path d="m789 710-5 7 5-8zm-5 7 5-8-6 8z" fill="#dbdbdb" stroke-linecap="round"/>
    <path d="m789 709-6 8 5-9zm-6 8 5-9-6 8z" fill="#dbdbdb" stroke-linecap="round"/>
    <path d="M787 708v0l-5 8zm0 0-5 8 6-8z" fill="#dbdbdb" stroke-linecap="round"/>
    <path d="m787 708-5 8 4-8zm-5 8 4-8-5 7z" fill="#dbdbdb" stroke-linecap="round"/>
    <path d="m786 708-5 7 4-7zm-5 7 4-7-4 6z" fill="#dbdbdb" stroke-linecap="round"/>
    <path d="m785 708-4 6 3-6zm-4 6 3-6-3 5zm3-6-3 5v-1zm-3 5 3-5v0z" fill="#dbdbdb" stroke-linecap="round"/>
    <path d="m784 708-3 4 2-3zm-3 4 2-3-2 2z" fill="#dbdbdb" stroke-linecap="round"/>
    <path d="M783 709h-1l-1 2zm-1 0-1 2zm-1 2 1-2-1 1z" fill="#dbdbdb" stroke-linecap="round"/>
    <path d="m791 715 2 3-4-1h-4" fill="none" stroke-linecap="round" stroke-linejoin="round"/>
    <path d="M785.095 717.982a4.5 4.5 0 1 1 4.488-6.373M790 711l1 4" fill="none" stroke-linecap="round" stroke-linejoin="round"/>
    <path d="m766 757-2-3-2 2z" fill="#dbdbdb" stroke-linecap="round"/>
    <path d="m764 754-2 2v-6zm-2 2v-6l-5 7z" fill="#dbdbdb" stroke-linecap="round"/>
    <path d="m762 750-5 7 5-8zm-5 7 5-8-5 7z" fill="#dbdbdb" stroke-linecap="round"/>
    <path d="m762 749-5 7 4-8zm-5 7 4-8-5 8z" fill="#dbdbdb" stroke-linecap="round"/>
    <path d="m761 748-5 8 4-8zm-5 8 4-8-5 8z" fill="#dbdbdb" stroke-linecap="round"/>
    <path d="m760 748-5 8 5-9zm-5 8 5-9-6 8z" fill="#dbdbdb" stroke-linecap="round"/>
    <path d="m760 747-6 8 5-8zm-6 8 5-8-5 7z" fill="#dbdbdb" stroke-linecap="round"/>
    <path d="m759 747-5 7 4-7zm-5 7 4-7-5 6z" fill="#dbdbdb" stroke-linecap="round"/>
    <path d="m758 747-5 6 4-6zm-5 6 4-6-4 5z" fill="#dbdbdb" stroke-linecap="round"/>
    <path d="m757 747-4 5 3-5zm-4 5 3-5-3 4z" fill="#dbdbdb" stroke-linecap="round"/>
    <path d="M755 748v0l-2 3zm0 0-2 3 3-4z" fill="#dbdbdb" stroke-linecap="round"/>
    <path d="M753 751v-1l2-2zm0-1 2-2-1 1zm0 1 2-3v0z" fill="#dbdbdb" stroke-linecap="round"/>
    <path d="m764 754 2 3-4-1-5 1" fill="none" stroke-linecap="round" stroke-linejoin="round"/>
    <path d="M758.095 756.982a4.5 4.5 0 1 1 4.488-6.373M762 750l2 4" fill="none" stroke-linecap="round" stroke-linejoin="round"/>
    <path d="m807 699-2-4-2 3z" fill="#dbdbdb" stroke-linecap="round"/>
    <path d="m805 695-2 3 1-7zm-2 3 1-7-5 7z" fill="#dbdbdb" stroke-linecap="round"/>
    <path d="m804 691-5 7 4-8zm-5 7 4-8-5 8z" fill="#dbdbdb" stroke-linecap="round"/>
    <path d="m803 690-5 8 5-9zm-5 8 5-9-6 8z" fill="#dbdbdb" stroke-linecap="round"/>
    <path d="m803 689-6 8 5-8zm-6 8 5-8-6 8z" fill="#dbdbdb" stroke-linecap="round"/>
    <path d="m802 689-6 8 5-8zm-6 8 5-8-5 7z" fill="#dbdbdb" stroke-linecap="round"/>
    <path d="m801 689-5 7 4-8zm-5 7 4-8-5 7z" fill="#dbdbdb" stroke-linecap="round"/>
    <path d="M799 688v0l-4 7zm0 0-4 7 5-7z" fill="#dbdbdb" stroke-linecap="round"/>
    <path d="m799 688-4 7 3-7zm-4 7 3-7-4 6z" fill="#dbdbdb" stroke-linecap="round"/>
    <path d="m798 688-4 6 3-5zm-4 6 3-5-3 4zm3-5-3 4v-1zm-3 4 3-4v0z" fill="#dbdbdb" stroke-linecap="round"/>
    <path d="m794 692 1-1 1-1zm1-1 1-1h-1zm-1 1 3-3-1 1z" fill="#dbdbdb" stroke-linecap="round"/>
    <path d="m805 695 2 4-4-1h-4" fill="none" stroke-linecap="round" stroke-linejoin="round"/>
    <path d="M799.095 697.982a4.5 4.5 0 1 1 4.488-6.373M804 691l1 4" fill="none" stroke-linecap="round" stroke-linejoin="round"/>
    <path d="m780 738-4-1 2-3z" fill="#dbdbdb" stroke-linecap="round"/>
    <path d="m776 737 2-3-7 3zm2-3-7 3 5-7z" fill="#dbdbdb" stroke-linecap="round"/>
    <path d="m771 737 5-7-6 7zm5-7-6 7 6-8z" fill="#dbdbdb" stroke-linecap="round"/>
    <path d="m770 737 6-8-7 7zm6-8-7 7 6-7zm-7 7 6-7-1-1zm6-7-6 7v0z" fill="#dbdbdb" stroke-linecap="round"/>
    <path d="m769 736 5-8-6 7zm5-8-6 7 5-7z" fill="#dbdbdb" stroke-linecap="round"/>
    <path d="m768 735 5-7-6 7zm5-7-6 7 6-8z" fill="#dbdbdb" stroke-linecap="round"/>
    <path d="m767 735 6-8-6 7zm6-8-6 7 5-7z" fill="#dbdbdb" stroke-linecap="round"/>
    <path d="m767 734 5-7-5 6zm5-7-5 6 4-6z" fill="#dbdbdb" stroke-linecap="round"/>
    <path d="m767 733 4-6-4 5zm4-6-4 5 3-4z" fill="#dbdbdb" stroke-linecap="round"/>
    <path d="m767 732 3-4-3 3zm3-4-3 3 2-3zm-3 2v0l1-1zm0 0 1-1 1-1z" fill="#dbdbdb" stroke-linecap="round"/>
    <path d="m769 728-2 3v-1z" fill="#dbdbdb" stroke-linecap="round"/>
    <path d="m776 737 4 1-2-4-2-4" fill="none" stroke-linecap="round" stroke-linejoin="round"/>
    <path d="M772.095 736.982a4.5 4.5 0 1 1 4.488-6.373M771 737h5" fill="none" stroke-linecap="round" stroke-linejoin="round"/>
    <path d="m833 703-2-3-2 2z" fill="#dbdbdb" stroke-linecap="round"/>
    <path d="m831 700-2 2 1-6zm-2 2 1-6-5 6z" fill="#dbdbdb" stroke-linecap="round"/>
    <path d="m830 696-5 6 4-7zm-5 6 4-7-5 7z" fill="#dbdbdb" stroke-linecap="round"/>
    <path d="m829 695-5 7 5-8zm-5 7 5-8-6 8z" fill="#dbdbdb" stroke-linecap="round"/>
    <path d="m829 694-6 8 5-8zm-6 8 5-8-6 7z" fill="#dbdbdb" stroke-linecap="round"/>
    <path d="M827 693v0l-5 8zm0 0-5 8 6-7z" fill="#dbdbdb" stroke-linecap="round"/>
    <path d="m827 693-5 8 4-8zm-5 8 4-8-5 7z" fill="#dbdbdb" stroke-linecap="round"/>
    <path d="m826 693-5 7 4-7zm-5 7 4-7-4 6zm4-7-4 6v-1zm-4 6 4-6v0z" fill="#dbdbdb" stroke-linecap="round"/>
    <path d="m825 693-4 5 3-5zm-4 5 3-5-3 4z" fill="#dbdbdb" stroke-linecap="round"/>
    <path d="M823 694v0l-2 3zm0 0-2 3 3-4zm-2 3v-1l1-2zm0-1 1-2-1 1z" fill="#dbdbdb" stroke-linecap="round"/>
    <path d="m821 697 2-3h-1z" fill="#dbdbdb" stroke-linecap="round"/>
    <path d="m831 700 2 3-4-1h-4" fill="none" stroke-linecap="round" stroke-linejoin="round"/>
    <path d="M825.095 702.982a4.5 4.5 0 1 1 4.488-6.373M830 696l1 4" fill="none" stroke-linecap="round" stroke-linejoin="round"/>
    <path d="m806 742-2-3-2 3z" fill="#dbdbdb" stroke-linecap="round"/>
    <path d="m804 739-2 3v-7zm-2 3v-7l-5 7z" fill="#dbdbdb" stroke-linecap="round"/>
    <path d="m802 735-5 7 5-8zm-5 7 5-8-5 7z" fill="#dbdbdb" stroke-linecap="round"/>
    <path d="m802 734-5 7 4-8zm-5 7 4-8-5 8z" fill="#dbdbdb" stroke-linecap="round"/>
    <path d="m801 733-5 8 4-8zm-5 8 4-8-5 8z" fill="#dbdbdb" stroke-linecap="round"/>
    <path d="m800 733-5 8 5-9zm-5 8 5-9-6 8z" fill="#dbdbdb" stroke-linecap="round"/>
    <path d="m800 732-6 8 5-8zm-6 8 5-8-5 7z" fill="#dbdbdb" stroke-linecap="round"/>
    <path d="m799 732-5 7 4-7zm-5 7 4-7-5 6z" fill="#dbdbdb" stroke-linecap="round"/>
    <path d="m798 732-5 6 4-6zm-5 6 4-6-4 5z" fill="#dbdbdb" stroke-linecap="round"/>
    <path d="M796 732v0l-3 5zm0 0-3 5 4-5z" fill="#dbdbdb" stroke-linecap="round"/>
    <path d="m796 732-3 5 2-4zm-3 5 2-4-2 3z" fill="#dbdbdb" stroke-linecap="round"/>
    <path d="M793 736v-1l2-2zm0-1 2-2-1 1zm0 1 2-3v0z" fill="#dbdbdb" stroke-linecap="round"/>
    <path d="m804 739 2 3h-9" fill="none" stroke-linecap="round" stroke-linejoin="round"/>
    <path d="M798.095 741.982a4.5 4.5 0 1 1 4.488-6.373M802 735l2 4" fill="none" stroke-linecap="round" stroke-linejoin="round"/>
    <path d="m820 723-2-4-2 3z" fill="#dbdbdb" stroke-linecap="round"/>
    <path d="m818 719-2 3v-7zm-2 3v-7l-5 7z" fill="#dbdbdb" stroke-linecap="round"/>
    <path d="m816 715-5 7 5-8zm-5 7 5-8-6 8z" fill="#dbdbdb" stroke-linecap="round"/>
    <path d="m816 714-6 8 5-8zm-6 8 5-8-6 8z" fill="#dbdbdb" stroke-linecap="round"/>
    <path d="m815 714-6 8 5-9zm-6 8 5-9-5 8z" fill="#dbdbdb" stroke-linecap="round"/>
    <path d="m814 713-5 8 4-8zm-5 8 4-8-5 7z" fill="#dbdbdb" stroke-linecap="round"/>
    <path d="m813 713-5 7 5-8zm-5 7 5-8-6 8z" fill="#dbdbdb" stroke-linecap="round"/>
    <path d="m813 712-6 8 5-8zm-6 8 5-8-5 7z" fill="#dbdbdb" stroke-linecap="round"/>
    <path d="m812 712-5 7 4-7zm-5 7 4-7-4 6z" fill="#dbdbdb" stroke-linecap="round"/>
    <path d="m811 712-4 6 3-5zm-4 6 3-5-3 4z" fill="#dbdbdb" stroke-linecap="round"/>
    <path d="m810 713-3 4 2-4zm-3 4 2-4-2 3zm1-3v0l-1 1zm0 0-1 1v1z" fill="#dbdbdb" stroke-linecap="round"/>
    <path d="m807 716 2-3-1 1z" fill="#dbdbdb" stroke-linecap="round"/>
    <path d="m818 719 2 4-4-1h-5" fill="none" stroke-linecap="round" stroke-linejoin="round"/>
    <path d="M812.095 721.982a4.5 4.5 0 1 1 4.488-6.373M816 715l2 4" fill="none" stroke-linecap="round" stroke-linejoin="round"/>
    <path d="m792 762-4-1 2-3z" fill="#dbdbdb" stroke-linecap="round"/>
    <path d="m788 761 2-3-6 3zm2-3-6 3 5-7z" fill="#dbdbdb" stroke-linecap="round"/>
    <path d="m784 761 5-7-6 7zm5-7-6 7 5-8z" fill="#dbdbdb" stroke-linecap="round"/>
    <path d="m783 761 5-8-6 8zm5-8-6 8 5-8z" fill="#dbdbdb" stroke-linecap="round"/>
    <path d="m782 761 5-8-6 7zm5-8-6 7 6-8z" fill="#dbdbdb" stroke-linecap="round"/>
    <path d="m781 760 6-8-7 8zm6-8-7 8 6-8z" fill="#dbdbdb" stroke-linecap="round"/>
    <path d="m780 760 6-8-6 7zm6-8-6 7 5-7z" fill="#dbdbdb" stroke-linecap="round"/>
    <path d="m780 759 5-7-5 6zm5-7-5 6 4-7z" fill="#dbdbdb" stroke-linecap="round"/>
    <path d="m780 758 4-7-5 6zm4-7-5 6 4-5z" fill="#dbdbdb" stroke-linecap="round"/>
    <path d="m779 757 4-5-4 4zm4-5-4 4 3-4z" fill="#dbdbdb" stroke-linecap="round"/>
    <path d="m779 756 3-4-3 3zm3-4-3 3 2-3z" fill="#dbdbdb" stroke-linecap="round"/>
    <path d="M780 754v0l1-1zm0 0 1-1v-1z" fill="#dbdbdb" stroke-linecap="round"/>
    <path d="m781 752-2 3 1-1z" fill="#dbdbdb" stroke-linecap="round"/>
    <path d="m788 761 4 1-2-4-1-4m-4.905 6.982a4.5 4.5 0 1 1 4.488-6.373M784 761h4" fill="none" stroke-linecap="round" stroke-linejoin="round"/>
    <path d="m794 675-2-3-1 2z" fill="#dbdbdb" stroke-linecap="round"/>
    <path d="m792 672-1 2v-7zm-1 2v-7l-5 7z" fill="#dbdbdb" stroke-linecap="round"/>
    <path d="m791 667-5 7 4-7zm-5 7 4-7-5 7z" fill="#dbdbdb" stroke-linecap="round"/>
    <path d="m790 667-5 7 5-8zm-5 7 5-8-6 8z" fill="#dbdbdb" stroke-linecap="round"/>
    <path d="m790 666-6 8 5-9zm-6 8 5-9-5 8z" fill="#dbdbdb" stroke-linecap="round"/>
    <path d="m789 665-5 8 4-8zm-5 8 4-8-5 8z" fill="#dbdbdb" stroke-linecap="round"/>
    <path d="m788 665-5 8 4-8zm-5 8 4-8-5 7zm4-8-5 7v-1zm-5 7 5-7v0z" fill="#dbdbdb" stroke-linecap="round"/>
    <path d="m787 665-5 6 4-6zm-5 6 4-6-4 5z" fill="#dbdbdb" stroke-linecap="round"/>
    <path d="m786 665-4 5 3-5zm-4 5 3-5-3 4z" fill="#dbdbdb" stroke-linecap="round"/>
    <path d="m785 665-3 4 2-4zm-3 4 2-4-2 3z" fill="#dbdbdb" stroke-linecap="round"/>
    <path d="M782 668v-1l1-1zm0-1 1-1v1z" fill="#dbdbdb" stroke-linecap="round"/>
    <path d="m782 668 2-3-1 1z" fill="#dbdbdb" stroke-linecap="round"/>
    <path d="m792 672 2 3-3-1h-5" fill="none" stroke-linecap="round" stroke-linejoin="round"/>
    <path d="M787.095 673.982a4.5 4.5 0 1 1 4.488-6.373M791 667l1 5" fill="none" stroke-linecap="round" stroke-linejoin="round"/>
    <path d="m767 714-2-3-2 2z" fill="#dbdbdb" stroke-linecap="round"/>
    <path d="m765 711-2 2v-6zm-2 2v-6l-4 6z" fill="#dbdbdb" stroke-linecap="round"/>
    <path d="m763 707-4 6 4-7zm-4 6 4-7-5 7z" fill="#dbdbdb" stroke-linecap="round"/>
    <path d="m763 706-5 7 4-8zm-5 7 4-8-5 8z" fill="#dbdbdb" stroke-linecap="round"/>
    <path d="m762 705-5 8 5-9zm-5 8 5-9-6 8z" fill="#dbdbdb" stroke-linecap="round"/>
    <path d="m762 704-6 8 5-8zm-6 8 5-8-6 8z" fill="#dbdbdb" stroke-linecap="round"/>
    <path d="m761 704-6 8 5-8zm-6 8 5-8-5 7z" fill="#dbdbdb" stroke-linecap="round"/>
    <path d="m760 704-5 7 4-7zm-5 7 4-7-5 6z" fill="#dbdbdb" stroke-linecap="round"/>
    <path d="m759 704-5 6 4-6zm-5 6 4-6-4 5z" fill="#dbdbdb" stroke-linecap="round"/>
    <path d="m758 704-4 5 3-5zm-4 5 3-5-3 4z" fill="#dbdbdb" stroke-linecap="round"/>
    <path d="m757 704-3 4 2-3zm-3 4 2-3-2 2z" fill="#dbdbdb" stroke-linecap="round"/>
    <path d="M754 707h1l1-2zm1 0 1-2-1 1zm-1 0 2-2v0z" fill="#dbdbdb" stroke-linecap="round"/>
    <path d="m765 711 2 3-4-1h-4" fill="none" stroke-linecap="round" stroke-linejoin="round"/>
    <path d="M759.095 713.982a4.5 4.5 0 1 1 4.488-6.373M763 707l2 4" fill="none" stroke-linecap="round" stroke-linejoin="round"/>
    <path d="m781 695-2-4-2 3z" fill="#dbdbdb" stroke-linecap="round"/>
    <path d="m779 691-2 3v-7zm-2 3v-7l-5 7z" fill="#dbdbdb" stroke-linecap="round"/>
    <path d="m777 687-5 7 5-8zm-5 7 5-8-6 8z" fill="#dbdbdb" stroke-linecap="round"/>
    <path d="m777 686-6 8 5-8zm-6 8 5-8-5 7z" fill="#dbdbdb" stroke-linecap="round"/>
    <path d="m776 686-5 7 4-8zm-5 7 4-8-5 8zm4-8-5 8-1-1zm-5 8 5-8v0z" fill="#dbdbdb" stroke-linecap="round"/>
    <path d="m775 685-6 7 5-8zm-6 7 5-8-5 7z" fill="#dbdbdb" stroke-linecap="round"/>
    <path d="m774 684-5 7 4-7zm-5 7 4-7-5 7z" fill="#dbdbdb" stroke-linecap="round"/>
    <path d="m773 684-5 7 4-7zm-5 7 4-7-4 6z" fill="#dbdbdb" stroke-linecap="round"/>
    <path d="m772 684-4 6 3-5zm-4 6 3-5-3 4z" fill="#dbdbdb" stroke-linecap="round"/>
    <path d="m771 685-3 4 2-4zm-3 4 2-4-2 3zm1-3v0l-1 1zm0 0-1 1v1z" fill="#dbdbdb" stroke-linecap="round"/>
    <path d="m768 688 2-3-1 1z" fill="#dbdbdb" stroke-linecap="round"/>
    <path d="m779 691 2 4-4-1h-5" fill="none" stroke-linecap="round" stroke-linejoin="round"/>
    <path d="M773.095 693.982a4.5 4.5 0 1 1 4.488-6.373M777 687l2 4" fill="none" stroke-linecap="round" stroke-linejoin="round"/>
    <path d="m753 734-4-1 2-3z" fill="#dbdbdb" stroke-linecap="round"/>
    <path d="m749 733 2-3-6 3zm2-3-6 3 5-7z" fill="#dbdbdb" stroke-linecap="round"/>
    <path d="m745 733 5-7-6 7zm5-7-6 7 5-8z" fill="#dbdbdb" stroke-linecap="round"/>
    <path d="M743 732v0l6-7zm0 0 6-7-5 8z" fill="#dbdbdb" stroke-linecap="round"/>
    <path d="m743 732 6-7-7 7zm6-7-7 7 6-8z" fill="#dbdbdb" stroke-linecap="round"/>
    <path d="m742 732 6-8-6 7zm6-8-6 7 5-7z" fill="#dbdbdb" stroke-linecap="round"/>
    <path d="m742 731 5-7-6 7zm5-7-6 7 5-8z" fill="#dbdbdb" stroke-linecap="round"/>
    <path d="m741 731 5-8-5 7zm5-8-5 7 4-7z" fill="#dbdbdb" stroke-linecap="round"/>
    <path d="m741 730 4-7-5 6zm4-7-5 6 4-6z" fill="#dbdbdb" stroke-linecap="round"/>
    <path d="m740 729 4-6-4 5zm4-6-4 5 3-4z" fill="#dbdbdb" stroke-linecap="round"/>
    <path d="M740 727v0l3-3zm0 0 3-3-3 4z" fill="#dbdbdb" stroke-linecap="round"/>
    <path d="m743 724-1 1-1 1zm-1 1-1 1v-1zm1-1-3 3 1-1z" fill="#dbdbdb" stroke-linecap="round"/>
    <path d="m749 733 4 1-2-4-1-4m-4.905 6.982a4.5 4.5 0 1 1 4.488-6.373M745 733h4" fill="none" stroke-linecap="round" stroke-linejoin="round"/>
    <path d="m742 753-4-1 2-2z" fill="#dbdbdb" stroke-linecap="round"/>
    <path d="m738 752 2-2-7 3zm2-2-7 3 5-7z" fill="#dbdbdb" stroke-linecap="round"/>
    <path d="m733 753 5-7-5 6zm5-7-5 6 5-7z" fill="#dbdbdb" stroke-linecap="round"/>
    <path d="m733 752 5-7-6 7zm5-7-6 7 5-8z" fill="#dbdbdb" stroke-linecap="round"/>
    <path d="M731 752v0l6-8zm0 0 6-8-5 8z" fill="#dbdbdb" stroke-linecap="round"/>
    <path d="m731 752 6-8-7 7zm6-8-7 7 6-8z" fill="#dbdbdb" stroke-linecap="round"/>
    <path d="m730 751 6-8-6 7zm6-8-6 7 5-7z" fill="#dbdbdb" stroke-linecap="round"/>
    <path d="m730 750 5-7-6 6zm5-7-6 6 5-6z" fill="#dbdbdb" stroke-linecap="round"/>
    <path d="m729 749 5-6-5 5zm5-6-5 5 4-5z" fill="#dbdbdb" stroke-linecap="round"/>
    <path d="m729 748 4-5-4 4zm4-5-4 4 3-4zm-4 4 3-4-1 1zm3-4-3 4v0z" fill="#dbdbdb" stroke-linecap="round"/>
    <path d="M729 747v-1l2-2zm0-1 2-2zm2-2-2 2 1-1z" fill="#dbdbdb" stroke-linecap="round"/>
    <path d="m738 752 4 1-2-3-2-4" fill="none" stroke-linecap="round" stroke-linejoin="round"/>
    <path d="M734.095 752.982a4.5 4.5 0 1 1 4.488-6.373M733 753l5-1" fill="none" stroke-linecap="round" stroke-linejoin="round"/>
    <path d="m808 655-2-3-2 3z" fill="#dbdbdb" stroke-linecap="round"/>
    <path d="m806 652-2 3 1-7zm-2 3 1-7-5 7z" fill="#dbdbdb" stroke-linecap="round"/>
    <path d="m805 648-5 7 4-8zm-5 7 4-8-5 8z" fill="#dbdbdb" stroke-linecap="round"/>
    <path d="m804 647-5 8 5-9zm-5 8 5-9-6 8z" fill="#dbdbdb" stroke-linecap="round"/>
    <path d="m804 646-6 8 5-8zm-6 8 5-8-6 8z" fill="#dbdbdb" stroke-linecap="round"/>
    <path d="m803 646-6 8 5-9zm-6 8 5-9-5 8z" fill="#dbdbdb" stroke-linecap="round"/>
    <path d="m802 645-5 8 4-8zm-5 8 4-8-5 7z" fill="#dbdbdb" stroke-linecap="round"/>
    <path d="M800 645v0l-4 7zm0 0-4 7 5-7z" fill="#dbdbdb" stroke-linecap="round"/>
    <path d="m800 645-4 7 3-7zm-4 7 3-7-3 6z" fill="#dbdbdb" stroke-linecap="round"/>
    <path d="m799 645-3 6 2-6zm-3 6 2-6-3 5z" fill="#dbdbdb" stroke-linecap="round"/>
    <path d="m798 645-3 5 3-4zm-3 5 3-4-2 3z" fill="#dbdbdb" stroke-linecap="round"/>
    <path d="M796 649v-1l1-2zm0-1 1-2-1 1z" fill="#dbdbdb" stroke-linecap="round"/>
    <path d="m796 649 2-3h-1z" fill="#dbdbdb" stroke-linecap="round"/>
    <path d="m806 652 2 3h-8" fill="none" stroke-linecap="round" stroke-linejoin="round"/>
    <path d="M800.095 654.982a4.5 4.5 0 1 1 4.488-6.373M805 648l1 4M479.023 507.984c-.509-70.58 7.296-136.936 20.418-173.589 13.122-36.653 29.522-37.904 42.9-3.273C555.722 365.752 564 430.882 564 501.5M478 687V495m86 185V501m9 179V501M294.663 351.974a17.5 17.5 0 0 1 1.087-29.63M294 352l37 49m0 380-11-63-7-63-3-64 3-64 7-63 11-63" fill="none" stroke-linecap="round" stroke-linejoin="round"/>
    <path d="M748 888v10l-230-9zm0 10-230-9v10z" fill="#dbdbdb" stroke-linecap="round"/>
  </g>
</svg>