
SVGOMG
Powered by SVGO v2.6.1

Open SVG
Paste markup
Demo
Contribute
About

6.22k → 2k 32.09%
<svg xmlns="http://www.w3.org/2000/svg" width="188.969" height="188.975" viewBox="0 0 49.998 50">
  <defs>
    <clipPath id="a" clipPathUnits="userSpaceOnUse">
      <path d="M0 0h1181v1181H0V0"/>
    </clipPath>
  </defs>
  <g clip-path="url(#a)" transform="matrix(0 -.09018 -.07556 0 70.067 75.203)" stroke-width="3.205" stroke="#dbdbdb" stroke-miterlimit="10">
    <path d="M647 375v430zm0 0v430l-10-430Zm0 430-10-430v430zm-10-430v222zm0 222V375v193Zm0 10v198zm0 0v198-208Zm0 19v179zm0 0v179-198Zm0-251v193l-1-193zm0 193-1-193v165zm0 58v179l-2-151zm0 179-2-151v151zm-1-430v165l-2-165zm0 165-2-165v138zm-1 114v151l-2-125zm0 151-2-125v125zm-1-430v138l-3-138zm0 138-3-138v112zm-1 167v125l-3-99zm0 125-3-99v99zm-2-430v112l-3-112zm0 112-3-112v88zm-1 219v99l-4-76zm0 99-4-76v76zm-2-430v88l-4-88zm0 88-4-88v66zm-4-88v66l-1-66zm0 66-1-66v62zm2 288v76l-3-62zm0 76-3-62v62zm-3-62v62l-1-56zm0 62-1-56v60zm0-430v62l-4-72zm0 62-4-72v56zm-4-72v56l-2-63zm0 56-2-63v56zm3 328v60l-5-43zm0 60-5-43v56zm-5-42v55zm0 0v55-56zm0-409v56l-3-62zm0 56-3-62v53zm0 353v55l-6-40zm0 55-6-40v51zm-3-470v53l-3-60zm0 53-3-60v52zm-3 377v51-50zm0 51v-50 52zm0-488v52l-3-55zm0 52-3-55v50zm0 386v52l-6-42zm0 52-6-42v49zm-3-493v50l-4-56zm0 50-4-56v49zm-3 401v49l-1-47zm0 49-1-47v49zm-1-506v49l-2-51zm0 49-2-51v49zm0 410v49l-5-43zm0 49-5-43v47zm-2-510v49l-5-53zm0 49-5-53v48zm-3 418v47l-2-46zm0 47-2-46v48zm-2-518v48l-1-48zm0 48-1-48v47zm0 424v48l-4-46zm0 48-4-46v47zm-4-46v47l-3-47zm0 47-3-47v48zm3-521v47l-6-49zm0 47-6-49v47zm-6 427v48l-3-48zm0 48-3-48v48zm0-524v47l-6-47zm0 47-6-47v49zm-3 429v48l-6-51zm0 48-6-51v51zm-3-524v49l-6-48zm0 49-6-48v54zm-3 424v51l-6-59zm0 51-6-59v58zm-3-523v54l-6-54zm0 54-6-54v63zm-3 410v58l-6-69zm0 58-6-69v69zm-3-522v63l-6-63zm0 63-6-63v76zm-3 390v69l-6-84zm0 69-6-84v84zm-3-522v76l-5-75zm0 76-5-75v91zm-3 362v84l-5-102zm0 84-5-102v101zm-2-521v91l-4-91zm0 91-4-91v108zm-3 328v101l-1-108zm0 101-1-108v108zm-1-520v108l-1-108zm0 108-1-108v111zm0 304v108l-3-121zm0 108-3-121v121zm-1-520v111l-4-110zm0 111-4-110v132zm-2 288v121l-4-144zm0 121-4-144v143zm-2-519v132l-3-132zm0 132-3-132v156zm-2 243v143l-3-169zm0 143-3-169v169zm-1-518v156l-3-155zm0 156-3-155v181zm-2 193v169l-2-195zm0 169-2-195v194zm-1-517v181l-2-181zm0 181-2-181v208zm-1 141v194l-2-222zm0 194-2-222v222zm-1-516v208l-1-208zm0 208-1-208v236zm-1-208v265zm0 236V332zm0 29v251zm0 0v251-222Zm0-265v516l-19-513Zm0 516-19-513v510zm-19-513v510l-32-500Zm0 510-32-500v490zm-32-500v490l-31-478Zm0 490-31-478v466zm-31-478v466l-29-449Zm0 466-29-449v432zm-29-449v432l-27-413Zm0 432-27-413v394zm-27-413v394l-94-423Zm0 394-94-423v452zm-94-423v452l-3-454zm0 452-3-454v456zm-3-454v456l-4-456zm0 456-4-456v456zm-4-456v456l-3-456zm0 456-3-456v456zm-3-456v456l-4-456zm0 456-4-456v456zm-4-456v456l-3-454zm0 456-3-454v452zm-3-454v452l-3-450zm0 452-3-450v448zm-3-450v448l-3-446zm0 448-3-446v444zm-3-446v444l-2-441zm0 444-2-441v438zm-2-441v438l-2-435zm0 438-2-435v432zm-2-435v432l-1-428zm0 432-1-428v424zm-1-428v424-421Zm0 424V381v418Z" fill="#dbdbdb"/>
    <path d="m405 787-94 29m.986 1.057A19.5 19.5 0 0 1 284 799.5m-1-.5V381m1 .5a19.5 19.5 0 0 1 27.986-17.557M311 364l94 29m185.866 460a293.5 293.5 0 0 1-184.924-65.288m0-394.424A293.5 293.5 0 0 1 590.866 328m-.366 48c26.234 0 47.5 96.035 47.5 214.5S616.734 805 590.5 805 543 708.965 543 590.5 564.266 376 590.5 376M623 805h24m0-430h-24" fill="none" stroke-linecap="round" stroke-linejoin="round"/>
    <path d="M590.5 328c11.778 0 23.273 16.513 32.928 47.306m24.114 182.137c.61 21.95.61 44.164 0 66.114m-24.114 182.137C613.773 836.487 602.278 853 590.5 853m56.5-48V375" fill="none" stroke-linecap="round" stroke-linejoin="round"/>
    <path d="M668 620h-15l15-59zm-15 0 15-59h-15zm181-122-9-5v20zm-9-5v20l-50 68zm0 20-50 68v19zm-60-68v28zm10 136v19l-12-19zm0 19-12-19v19zm-10-155v28l-9-28zm0 28-9-28v56zm-9-28v56l-7-56zm0 56-7-56v72zm-7-30v46l-5-33zm0 46-5-33v45zm-5-33v45l-6-28zm0 45-6-28v41zm-6-28v41l-7-27zm0 41-7-27v40zm-7-27v40l-8-25zm0 40-8-25v38zm24 26v19l-32-19zm0 19-32-19v19zm-32-70v38l-8-27zm0 38-8-27v40zm0 13v19l-8-19zm0 19-8-19v19zm-8-59v59l-10-44zm0 59-10-44v44zm-10-44v44l-21-19zm0 44-21-19v19zm-21-19v19l-12-19zm0 19-12-19v19z" fill="#dbdbdb" stroke-linecap="round"/>
    <path d="M672 600h83m-40-19h40m-5.393-109.102a273.5 273.5 0 0 1-65.135 109.383m81.098-107.93a370.5 370.5 0 0 1-49.327 107.46M749 471v-26m16 28v-28" fill="none" stroke-linecap="round" stroke-linejoin="round"/>
    <path d="m741 458-11-5v10zm-11-5v10l-11-18zm0 10-11-18v26zm-11-18v26l-2-27zm0 26-2-27v28zm-2-27v28l-3-28zm0 28-3-28v29zm-3-28v29l-3-29zm0 29-3-29v29zm-3-29v29l-3-29zm0 29-3-29v29zm-3-29v29l-2-28zm0 29-2-28v27zm-2-28v27l-3-26zm0 27-3-26v24zm-3-26v24l-2-22zm0 24-2-22v21zm-2-22v21l-2-19zm0 21-2-19v16zm-2-19v16l-1-13zm0 16-1-13v11zm-1-2-1-3v-6zm-1-3v-6 3z" fill="#dbdbdb" stroke-linecap="round"/>
    <path d="M698 464v-11l-1 2z" fill="#dbdbdb" stroke-linecap="round"/>
    <path d="m730 453 11 5-11 5-11 8" fill="none" stroke-linecap="round" stroke-linejoin="round"/>
    <path d="M719.75 471.058a14.5 14.5 0 1 1 0-25.116M719 445l11 8m-46 128h-12m0 0v19m83-19v19m8-19v19m0 0h12l59-102m0 0-9-5-50 88h-12m2-136h-16" fill="none" stroke-linecap="round" stroke-linejoin="round"/>
  </g>
</svg>