
SVGOMG
Powered by SVGO v2.6.1

Open SVG
Paste markup
Demo
Contribute
About

8.17k → 2.96k 36.23%
<svg xmlns="http://www.w3.org/2000/svg" width="189.209" height="169.867" viewBox="0 0 50.062 44.944">
  <defs>
    <clipPath id="a" clipPathUnits="userSpaceOnUse">
      <path d="M0 0h1181v1181H0V0"/>
    </clipPath>
  </defs>
  <g clip-path="url(#a)" transform="matrix(0 -.0933 -.06501 0 64.848 78.91)" stroke-width="3.397" stroke="#dbdbdb" stroke-miterlimit="10">
    <path d="M435 893v-26l218 25zm0-26 218 25-2-25z" fill="#dbdbdb"/>
    <path d="m737 586-15 20 36-2zm-15 20 36-2-18 17zm36-2-18 17 35 3zm-18 17 35 3-21 15zm35 3-21 15 35 9zm-21 15 35 9-23 11zm35 9-23 11 33 14zm-23 11 33 14-24 8zm33 14-24 8 30 19zm-24 8 30 19-25 3zm30 19-25 3 26 24zm-25 3 26 24h-25zm26 24h-25l23 27zm-25 0 23 27-26-4zm23 27-26-4 18 31zm-26-4 18 31-24-9zm18 31-24-9 13 34zm-24-9 13 34-22-13zm13 34-22-13 7 35zm-22-13 7 35-20-16zm7 35-20-16 1 36zm-20-16 1 36-17-19zm1 36-17-19-4 36zm-17-19-4 36-14-21zm-4 36-14-21-10 34zm-14-21-10 34-11-23zm-10 34-11-23-15 32zm-11-23-15 32-6-24zm-15 32-6-24-21 29zm-6-24-21 29-2-25zm76-337-1-9v30zm-1-9v30l-1-42zm0 30-1-42v48zm-1-42v48l-4-59zm0 48-4-59v74zm-4-59v74l-3-83zm0 74-3-83v89z" fill="#dbdbdb"/>
    <path d="M741 485v89l-6-100zm0 89-6-100v113zm-6-100v113l-4-120zm0 113-4-120v126zm-4-120v126l-8-136zm0 126-8-136v147zm-8-136v147l-5-154zm0 147-5-154v159zm-5-154v159l-10-167Zm0 159-10-167v177zm-10-167v177l-6-182zm0 177-6-182v186zm-6-182v186l-12-170Zm0 186-12-170v178zm-12-170v178l-19-150Zm0 178-19-150v158zm-19-150v158l-21-129Zm0 158-21-129v134zm-21-129v134l-21-104Zm0 134-21-104v104zm-21-104v104l-20-75zm0 104-20-75v72zm-20-3-20-7v-36zm-20-7v-36l-19 26z" fill="#dbdbdb"/>
    <path d="M609 641v-72l-20 29z" fill="#dbdbdb"/>
    <path d="m699 419 21 15-167 193zm21 15L553 627l21 14z" fill="#dbdbdb"/>
    <path d="M702.43 436.887c51.701 36.412 64.096 107.842 27.683 159.543-36.412 51.701-107.842 64.096-159.543 27.683" fill="none" stroke-linecap="round" stroke-linejoin="round"/>
    <path d="m609 369-5-8-4 7z" fill="#dbdbdb" stroke-linecap="round"/>
    <path d="m604 361-4 7 1-17zm-4 7 1-17-12 17z" fill="#dbdbdb" stroke-linecap="round"/>
    <path d="m601 351-12 17 10-19zm-12 17 10-19-12 18z" fill="#dbdbdb" stroke-linecap="round"/>
    <path d="m599 349-12 18 11-19zm-12 18 11-19-13 18z" fill="#dbdbdb" stroke-linecap="round"/>
    <path d="m598 348-13 18 11-20zm-13 18 11-20-13 19z" fill="#dbdbdb" stroke-linecap="round"/>
    <path d="m596 346-13 19 11-20zm-13 19 11-20-13 19z" fill="#dbdbdb" stroke-linecap="round"/>
    <path d="m594 345-13 19 11-19zm-13 19 11-19-12 17z" fill="#dbdbdb" stroke-linecap="round"/>
    <path d="m592 345-12 17 10-17zm-12 17 10-17-11 15z" fill="#dbdbdb" stroke-linecap="round"/>
    <path d="m590 345-11 15 9-15zm-11 15 9-15-9 13z" fill="#dbdbdb" stroke-linecap="round"/>
    <path d="m588 345-9 13 7-13zm-9 13 7-13-7 11z" fill="#dbdbdb" stroke-linecap="round"/>
    <path d="m586 345-7 11 5-10zm-7 11 5-10-5 7zm0-3 1-2 2-3zm1-2 2-3-1 1z" fill="#dbdbdb" stroke-linecap="round"/>
    <path d="m579 353 5-7-2 2z" fill="#dbdbdb" stroke-linecap="round"/>
    <path d="m604 361 5 8-9-1h-11" fill="none" stroke-linecap="round" stroke-linejoin="round"/>
    <path d="M589.466 367.953a11.5 11.5 0 1 1 11.47-16.285M601 351l3 10" fill="none" stroke-linecap="round" stroke-linejoin="round"/>
    <path d="m543 463-5-8-4 6z" fill="#dbdbdb" stroke-linecap="round"/>
    <path d="m538 455-4 6 1-16zm-4 6 1-16-12 16z" fill="#dbdbdb" stroke-linecap="round"/>
    <path d="m535 445-12 16 11-18zm-12 16 11-18-13 18z" fill="#dbdbdb" stroke-linecap="round"/>
    <path d="m534 443-13 18 11-20zm-13 18 11-20-13 19z" fill="#dbdbdb" stroke-linecap="round"/>
    <path d="m532 441-13 19 11-20zm-13 19 11-20-13 19z" fill="#dbdbdb" stroke-linecap="round"/>
    <path d="m530 440-13 19 12-20zm-13 19 12-20-13 18z" fill="#dbdbdb" stroke-linecap="round"/>
    <path d="m529 439-13 18 10-19zm-13 18 10-19-12 17z" fill="#dbdbdb" stroke-linecap="round"/>
    <path d="m526 438-12 17 10-17zm-12 17 10-17-11 15z" fill="#dbdbdb" stroke-linecap="round"/>
    <path d="m524 438-11 15 9-15zm-11 15 9-15-9 13z" fill="#dbdbdb" stroke-linecap="round"/>
    <path d="m522 438-9 13 7-12zm-9 13 7-12-7 10z" fill="#dbdbdb" stroke-linecap="round"/>
    <path d="m520 439-7 10 5-9zm-7 10 5-9-5 7zm0-2 1-2 2-4zm1-2 2-4-1 2z" fill="#dbdbdb" stroke-linecap="round"/>
    <path d="m513 447 5-7-2 1z" fill="#dbdbdb" stroke-linecap="round"/>
    <path d="m538 455 5 8-9-2h-11" fill="none" stroke-linecap="round" stroke-linejoin="round"/>
    <path d="M523.466 461.953a11.5 11.5 0 1 1 11.47-16.285M535 445l3 10" fill="none" stroke-linecap="round" stroke-linejoin="round"/>
    <path d="m477 556-4-8-5 6z" fill="#dbdbdb" stroke-linecap="round"/>
    <path d="m473 548-5 6 1-16zm-5 6 1-16-12 16z" fill="#dbdbdb" stroke-linecap="round"/>
    <path d="m469 538-12 16 11-18zm-12 16 11-18-13 18z" fill="#dbdbdb" stroke-linecap="round"/>
    <path d="m468 536-13 18 11-19zm-13 18 11-19-13 18z" fill="#dbdbdb" stroke-linecap="round"/>
    <path d="m466 535-13 18 12-20zm-13 18 12-20-14 19z" fill="#dbdbdb" stroke-linecap="round"/>
    <path d="m465 533-14 19 12-20zm-14 19 12-20-13 19z" fill="#dbdbdb" stroke-linecap="round"/>
    <path d="m463 532-13 19 11-19zm-13 19 11-19-12 17z" fill="#dbdbdb" stroke-linecap="round"/>
    <path d="m461 532-12 17 9-18zm-12 17 9-18-10 16z" fill="#dbdbdb" stroke-linecap="round"/>
    <path d="m458 531-10 16 8-15zm-10 16 8-15-9 13z" fill="#dbdbdb" stroke-linecap="round"/>
    <path d="m456 532-9 13 7-13zm-9 13 7-13-7 10z" fill="#dbdbdb" stroke-linecap="round"/>
    <path d="m454 532-7 10 5-9zm-7 10 5-9-5 7zm0-2 1-2 2-3zm1-2 2-3-1 1z" fill="#dbdbdb" stroke-linecap="round"/>
    <path d="m447 540 5-7-2 2z" fill="#dbdbdb" stroke-linecap="round"/>
    <path d="m473 548 4 8-9-2h-11" fill="none" stroke-linecap="round" stroke-linejoin="round"/>
    <path d="M458.466 554.953a11.5 11.5 0 1 1 11.47-16.285M469 538l4 10" fill="none" stroke-linecap="round" stroke-linejoin="round"/>
    <path d="m576 416-5-8-4 6z" fill="#dbdbdb" stroke-linecap="round"/>
    <path d="m571 408-4 6 1-16zm-4 6 1-16-12 16z" fill="#dbdbdb" stroke-linecap="round"/>
    <path d="m568 398-12 16 11-18zm-12 16 11-18-13 18z" fill="#dbdbdb" stroke-linecap="round"/>
    <path d="m567 396-13 18 11-20zm-13 18 11-20-13 19z" fill="#dbdbdb" stroke-linecap="round"/>
    <path d="m565 394-13 19 11-20zm-13 19 11-20-13 19z" fill="#dbdbdb" stroke-linecap="round"/>
    <path d="m563 393-13 19 11-20zm-13 19 11-20-13 18z" fill="#dbdbdb" stroke-linecap="round"/>
    <path d="m561 392-13 18 11-19zm-13 18 11-19-12 18z" fill="#dbdbdb" stroke-linecap="round"/>
    <path d="m559 391-12 18 10-18zm-12 18 10-18-11 16z" fill="#dbdbdb" stroke-linecap="round"/>
    <path d="m557 391-11 16 9-16zm-11 16 9-16-9 14z" fill="#dbdbdb" stroke-linecap="round"/>
    <path d="m555 391-9 14 7-13zm-9 14 7-13-7 10z" fill="#dbdbdb" stroke-linecap="round"/>
    <path d="m553 392-7 10 5-9zm-7 10 5-9-5 7zm0-2 1-2 2-4zm1-2 2-4-1 2z" fill="#dbdbdb" stroke-linecap="round"/>
    <path d="m546 400 5-7-2 1z" fill="#dbdbdb" stroke-linecap="round"/>
    <path d="m571 408 5 8-9-2h-11" fill="none" stroke-linecap="round" stroke-linejoin="round"/>
    <path d="M556.466 414.953a11.5 11.5 0 1 1 11.47-16.285M568 398l3 10" fill="none" stroke-linecap="round" stroke-linejoin="round"/>
    <path d="m510 510-9-2 4-7z" fill="#dbdbdb" stroke-linecap="round"/>
    <path d="m501 508 4-7-15 7zm4-7-15 7 12-17z" fill="#dbdbdb" stroke-linecap="round"/>
    <path d="m490 508 12-17-14 16zm12-17-14 16 13-18z" fill="#dbdbdb" stroke-linecap="round"/>
    <path d="m488 507 13-18-15 18zm13-18-15 18 13-19z" fill="#dbdbdb" stroke-linecap="round"/>
    <path d="m486 507 13-19-15 17zm13-19-15 17 14-19z" fill="#dbdbdb" stroke-linecap="round"/>
    <path d="m484 505 14-19-15 18zm14-19-15 18 13-19z" fill="#dbdbdb" stroke-linecap="round"/>
    <path d="m483 504 13-19-15 17zm13-19-15 17 13-17z" fill="#dbdbdb" stroke-linecap="round"/>
    <path d="m481 502 13-17-14 15zm13-17-14 15 11-15z" fill="#dbdbdb" stroke-linecap="round"/>
    <path d="m480 500 11-15-11 13zm11-15-11 13 9-13z" fill="#dbdbdb" stroke-linecap="round"/>
    <path d="m480 498 9-13-9 11zm9-13-9 11 7-10z" fill="#dbdbdb" stroke-linecap="round"/>
    <path d="m480 496 7-10-7 8zm7-10-7 8 5-7zm-2 1-2 1-2 3zm-2 1-2 3 1-1z" fill="#dbdbdb" stroke-linecap="round"/>
    <path d="m485 487-5 7 1-3z" fill="#dbdbdb" stroke-linecap="round"/>
    <path d="m501 508 9 2-5-9-3-10m-11.534 16.953a11.5 11.5 0 1 1 11.47-16.285M490 508h11" fill="none" stroke-linecap="round" stroke-linejoin="round"/>
    <path d="m639 427-5-8-5 6z" fill="#dbdbdb" stroke-linecap="round"/>
    <path d="m634 419-5 6 1-16zm-5 6 1-16-11 16z" fill="#dbdbdb" stroke-linecap="round"/>
    <path d="m630 409-11 16 10-18zm-11 16 10-18-12 18z" fill="#dbdbdb" stroke-linecap="round"/>
    <path d="m629 407-12 18 11-20zm-12 18 11-20-13 19z" fill="#dbdbdb" stroke-linecap="round"/>
    <path d="m628 405-13 19 11-20zm-13 19 11-20-13 19z" fill="#dbdbdb" stroke-linecap="round"/>
    <path d="m626 404-13 19 11-20zm-13 19 11-20-13 19z" fill="#dbdbdb" stroke-linecap="round"/>
    <path d="m624 403-13 19 11-19zm-13 19 11-19-12 17z" fill="#dbdbdb" stroke-linecap="round"/>
    <path d="m622 403-12 17 10-18zm-12 17 10-18-11 16z" fill="#dbdbdb" stroke-linecap="round"/>
    <path d="m620 402-11 16 9-15zm-11 16 9-15-10 13z" fill="#dbdbdb" stroke-linecap="round"/>
    <path d="m618 403-10 13 8-13zm-10 13 8-13-8 10z" fill="#dbdbdb" stroke-linecap="round"/>
    <path d="m616 403-8 10 6-9zm-8 10 6-9-5 7zm1-2v-2l3-3zm0-2 3-3-2 1z" fill="#dbdbdb" stroke-linecap="round"/>
    <path d="m609 411 5-7-2 2z" fill="#dbdbdb" stroke-linecap="round"/>
    <path d="m634 419 5 8-10-2h-10" fill="none" stroke-linecap="round" stroke-linejoin="round"/>
    <path d="M619.466 425.953a11.5 11.5 0 1 1 11.47-16.285M630 409l4 10" fill="none" stroke-linecap="round" stroke-linejoin="round"/>
    <path d="m573 521-5-9-4 7z" fill="#dbdbdb" stroke-linecap="round"/>
    <path d="m568 512-4 7 1-17zm-4 7 1-17-12 17z" fill="#dbdbdb" stroke-linecap="round"/>
    <path d="m565 502-12 17 10-18zm-12 17 10-18-12 17z" fill="#dbdbdb" stroke-linecap="round"/>
    <path d="m563 501-12 17 11-19zm-12 17 11-19-13 19z" fill="#dbdbdb" stroke-linecap="round"/>
    <path d="m562 499-13 19 11-20zm-13 19 11-20-13 18z" fill="#dbdbdb" stroke-linecap="round"/>
    <path d="m560 498-13 18 11-19zm-13 18 11-19-13 18z" fill="#dbdbdb" stroke-linecap="round"/>
    <path d="m558 497-13 18 11-19zm-13 18 11-19-12 17z" fill="#dbdbdb" stroke-linecap="round"/>
    <path d="m556 496-12 17 10-17zm-12 17 10-17-11 15z" fill="#dbdbdb" stroke-linecap="round"/>
    <path d="m554 496-11 15 9-15zm-11 15 9-15-9 13z" fill="#dbdbdb" stroke-linecap="round"/>
    <path d="m552 496-9 13 7-12zm-9 13 7-12-7 10z" fill="#dbdbdb" stroke-linecap="round"/>
    <path d="m550 497-7 10 5-9zm-7 10 5-9-5 7zm0-2 1-2 2-4zm1-2 2-4-1 2z" fill="#dbdbdb" stroke-linecap="round"/>
    <path d="m543 505 5-7-2 1z" fill="#dbdbdb" stroke-linecap="round"/>
    <path d="m568 512 5 9-9-2h-11" fill="none" stroke-linecap="round" stroke-linejoin="round"/>
    <path d="M553.466 518.953a11.5 11.5 0 1 1 11.47-16.285M565 502l3 10" fill="none" stroke-linecap="round" stroke-linejoin="round"/>
    <path d="m606 474-5-8-4 6z" fill="#dbdbdb" stroke-linecap="round"/>
    <path d="m601 466-4 6v-16zm-4 6v-16l-11 16z" fill="#dbdbdb" stroke-linecap="round"/>
    <path d="m597 456-11 16 10-18zm-11 16 10-18-12 18z" fill="#dbdbdb" stroke-linecap="round"/>
    <path d="m596 454-12 18 11-20zm-12 18 11-20-13 19z" fill="#dbdbdb" stroke-linecap="round"/>
    <path d="m595 452-13 19 11-20zm-13 19 11-20-13 19z" fill="#dbdbdb" stroke-linecap="round"/>
    <path d="m593 451-13 19 11-20zm-13 19 11-20-13 18z" fill="#dbdbdb" stroke-linecap="round"/>
    <path d="m591 450-13 18 11-19zm-13 18 11-19-12 17z" fill="#dbdbdb" stroke-linecap="round"/>
    <path d="m589 449-12 17 10-17zm-12 17 10-17-11 15z" fill="#dbdbdb" stroke-linecap="round"/>
    <path d="m587 449-11 15 9-15zm-11 15 9-15-9 13z" fill="#dbdbdb" stroke-linecap="round"/>
    <path d="m585 449-9 13 7-12zm-9 13 7-12-8 10z" fill="#dbdbdb" stroke-linecap="round"/>
    <path d="m583 450-8 10 6-9zm-8 10 6-9-5 7zm1-2v-2l3-4zm0-2 3-4-1 2z" fill="#dbdbdb" stroke-linecap="round"/>
    <path d="m576 458 5-7-2 1z" fill="#dbdbdb" stroke-linecap="round"/>
    <path d="m601 466 5 8-9-2h-11" fill="none" stroke-linecap="round" stroke-linejoin="round"/>
    <path d="M586.466 472.953a11.5 11.5 0 1 1 11.47-16.285M597 456l4 10" fill="none" stroke-linecap="round" stroke-linejoin="round"/>
    <path d="m540 567-9-2 4-6z" fill="#dbdbdb" stroke-linecap="round"/>
    <path d="m531 565 4-6-15 7zm4-6-15 7 12-17z" fill="#dbdbdb" stroke-linecap="round"/>
    <path d="m520 566 12-17-14 16zm12-17-14 16 13-18z" fill="#dbdbdb" stroke-linecap="round"/>
    <path d="m518 565 13-18-15 17zm13-18-15 17 13-18z" fill="#dbdbdb" stroke-linecap="round"/>
    <path d="m516 564 13-18-15 17zm13-18-15 17 13-19z" fill="#dbdbdb" stroke-linecap="round"/>
    <path d="m514 563 13-19-15 18zm13-19-15 18 13-19z" fill="#dbdbdb" stroke-linecap="round"/>
    <path d="m512 562 13-19-14 17zm13-19-14 17 12-17z" fill="#dbdbdb" stroke-linecap="round"/>
    <path d="m511 560 12-17-13 15zm12-17-13 15 11-16z" fill="#dbdbdb" stroke-linecap="round"/>
    <path d="m510 558 11-16-11 14zm11-16-11 14 9-13z" fill="#dbdbdb" stroke-linecap="round"/>
    <path d="m510 556 9-13-9 11zm9-13-9 11 7-11z" fill="#dbdbdb" stroke-linecap="round"/>
    <path d="m510 554 7-11-7 8zm7-11-7 8 5-7zm-2 1-2 2-2 3zm-2 2-2 3 1-2z" fill="#dbdbdb" stroke-linecap="round"/>
    <path d="m515 544-5 7 1-2z" fill="#dbdbdb" stroke-linecap="round"/>
    <path d="m531 565 9 2-5-8-3-10m-11.534 16.953a11.5 11.5 0 1 1 11.47-16.285M520 566l11-1" fill="none" stroke-linecap="round" stroke-linejoin="round"/>
    <path d="m546 360-5-8-4 6z" fill="#dbdbdb" stroke-linecap="round"/>
    <path d="m541 352-4 6v-16zm-4 6v-16l-11 16z" fill="#dbdbdb" stroke-linecap="round"/>
    <path d="m537 342-11 16 10-18zm-11 16 10-18-12 18z" fill="#dbdbdb" stroke-linecap="round"/>
    <path d="m536 340-12 18 11-20zm-12 18 11-20-13 19z" fill="#dbdbdb" stroke-linecap="round"/>
    <path d="m535 338-13 19 11-20zm-13 19 11-20-13 19z" fill="#dbdbdb" stroke-linecap="round"/>
    <path d="m533 337-13 19 11-20zm-13 19 11-20-13 18z" fill="#dbdbdb" stroke-linecap="round"/>
    <path d="m531 336-13 18 11-19zm-13 18 11-19-12 17z" fill="#dbdbdb" stroke-linecap="round"/>
    <path d="m529 335-12 17 10-17zm-12 17 10-17-11 15z" fill="#dbdbdb" stroke-linecap="round"/>
    <path d="m527 335-11 15 9-15zm-11 15 9-15-10 13z" fill="#dbdbdb" stroke-linecap="round"/>
    <path d="m525 335-10 13 8-12zm-10 13 8-12-8 10z" fill="#dbdbdb" stroke-linecap="round"/>
    <path d="m523 336-8 10 6-9zm-8 10 6-9-5 7zm1-2v-2l3-4zm0-2 3-4-2 2z" fill="#dbdbdb" stroke-linecap="round"/>
    <path d="m516 344 5-7-2 1z" fill="#dbdbdb" stroke-linecap="round"/>
    <path d="m541 352 5 8-9-2h-11" fill="none" stroke-linecap="round" stroke-linejoin="round"/>
    <path d="M526.466 358.953a11.5 11.5 0 1 1 11.47-16.285M537 342l4 10" fill="none" stroke-linecap="round" stroke-linejoin="round"/>
    <path d="m480 453-5-8-4 6z" fill="#dbdbdb" stroke-linecap="round"/>
    <path d="m475 445-4 6 1-16zm-4 6 1-16-12 17z" fill="#dbdbdb" stroke-linecap="round"/>
    <path d="m472 435-12 17 11-19zm-12 17 11-19-13 18z" fill="#dbdbdb" stroke-linecap="round"/>
    <path d="m471 433-13 18 11-19zm-13 18 11-19-13 18z" fill="#dbdbdb" stroke-linecap="round"/>
    <path d="m469 432-13 18 11-20zm-13 18 11-20-13 19z" fill="#dbdbdb" stroke-linecap="round"/>
    <path d="m467 430-13 19 11-20zm-13 19 11-20-13 19z" fill="#dbdbdb" stroke-linecap="round"/>
    <path d="m465 429-13 19 11-19zm-13 19 11-19-12 17z" fill="#dbdbdb" stroke-linecap="round"/>
    <path d="m463 429-12 17 10-18zm-12 17 10-18-11 16z" fill="#dbdbdb" stroke-linecap="round"/>
    <path d="m461 428-11 16 9-15zm-11 16 9-15-9 13z" fill="#dbdbdb" stroke-linecap="round"/>
    <path d="m459 429-9 13 7-13zm-9 13 7-13-7 11z" fill="#dbdbdb" stroke-linecap="round"/>
    <path d="m457 429-7 11 5-10zm-7 11 5-10-5 7zm0-3 1-2 2-3zm1-2 2-3-1 1z" fill="#dbdbdb" stroke-linecap="round"/>
    <path d="m450 437 5-7-2 2z" fill="#dbdbdb" stroke-linecap="round"/>
    <path d="m475 445 5 8-9-2-11 1" fill="none" stroke-linecap="round" stroke-linejoin="round"/>
    <path d="M460.466 451.953a11.5 11.5 0 1 1 11.47-16.285M472 435l3 10" fill="none" stroke-linecap="round" stroke-linejoin="round"/>
    <path d="m513 407-5-9-4 7z" fill="#dbdbdb" stroke-linecap="round"/>
    <path d="m508 398-4 7 1-17zm-4 7 1-17-12 17z" fill="#dbdbdb" stroke-linecap="round"/>
    <path d="m505 388-12 17 10-18zm-12 17 10-18-12 17z" fill="#dbdbdb" stroke-linecap="round"/>
    <path d="m503 387-12 17 11-19zm-12 17 11-19-13 19z" fill="#dbdbdb" stroke-linecap="round"/>
    <path d="m502 385-13 19 11-20zm-13 19 11-20-13 18z" fill="#dbdbdb" stroke-linecap="round"/>
    <path d="m500 384-13 18 11-19zm-13 18 11-19-13 18z" fill="#dbdbdb" stroke-linecap="round"/>
    <path d="m498 383-13 18 11-19zm-13 18 11-19-12 17z" fill="#dbdbdb" stroke-linecap="round"/>
    <path d="m496 382-12 17 10-17zm-12 17 10-17-11 15z" fill="#dbdbdb" stroke-linecap="round"/>
    <path d="m494 382-11 15 9-15zm-11 15 9-15-9 13z" fill="#dbdbdb" stroke-linecap="round"/>
    <path d="m492 382-9 13 7-12zm-9 13 7-12-8 10z" fill="#dbdbdb" stroke-linecap="round"/>
    <path d="m490 383-8 10 6-9zm-8 10 6-9-5 7zm1-2v-2l3-4zm0-2 3-4-1 2z" fill="#dbdbdb" stroke-linecap="round"/>
    <path d="m483 391 5-7-2 1z" fill="#dbdbdb" stroke-linecap="round"/>
    <path d="m508 398 5 9-9-2h-11" fill="none" stroke-linecap="round" stroke-linejoin="round"/>
    <path d="M493.466 404.953a11.5 11.5 0 1 1 11.47-16.285M505 388l3 10" fill="none" stroke-linecap="round" stroke-linejoin="round"/>
    <path d="m447 500-9-2 4-6z" fill="#dbdbdb" stroke-linecap="round"/>
    <path d="m438 498 4-6-15 6zm4-6-15 6 12-16z" fill="#dbdbdb" stroke-linecap="round"/>
    <path d="m427 498 12-16-14 16zm12-16-14 16 13-18z" fill="#dbdbdb" stroke-linecap="round"/>
    <path d="m425 498 13-18-15 17zm13-18-15 17 13-19z" fill="#dbdbdb" stroke-linecap="round"/>
    <path d="m423 497 13-19-15 18zm13-19-15 18 13-19z" fill="#dbdbdb" stroke-linecap="round"/>
    <path d="m421 496 13-19-14 17zm13-19-14 17 12-18z" fill="#dbdbdb" stroke-linecap="round"/>
    <path d="m420 494 12-18-14 17zm12-18-14 17 12-18z" fill="#dbdbdb" stroke-linecap="round"/>
    <path d="m418 493 12-18-13 16zm12-18-13 16 11-16z" fill="#dbdbdb" stroke-linecap="round"/>
    <path d="m417 491 11-16-11 13zm11-16-11 13 9-13z" fill="#dbdbdb" stroke-linecap="round"/>
    <path d="m417 488 9-13-9 11zm9-13-9 11 7-10z" fill="#dbdbdb" stroke-linecap="round"/>
    <path d="m417 486 7-10-7 8zm7-10-7 8 5-7zm-2 1-2 1-2 4zm-2 1-2 4 1-2z" fill="#dbdbdb" stroke-linecap="round"/>
    <path d="m422 477-5 7 1-2z" fill="#dbdbdb" stroke-linecap="round"/>
    <path d="m438 498 9 2-5-8-3-10m-11.534 16.953a11.5 11.5 0 1 1 11.47-16.285M427 498h11" fill="none" stroke-linecap="round" stroke-linejoin="round"/>
    <path d="m420 547-9-2 4-6z" fill="#dbdbdb" stroke-linecap="round"/>
    <path d="m411 545 4-6-15 6zm4-6-15 6 12-16z" fill="#dbdbdb" stroke-linecap="round"/>
    <path d="m400 545 12-16-14 16zm12-16-14 16 13-18z" fill="#dbdbdb" stroke-linecap="round"/>
    <path d="m398 545 13-18-15 17zm13-18-15 17 13-19z" fill="#dbdbdb" stroke-linecap="round"/>
    <path d="m396 544 13-19-15 18zm13-19-15 18 13-19z" fill="#dbdbdb" stroke-linecap="round"/>
    <path d="m394 543 13-19-14 17zm13-19-14 17 13-18z" fill="#dbdbdb" stroke-linecap="round"/>
    <path d="m393 541 13-18-15 16zm13-18-15 16 12-17z" fill="#dbdbdb" stroke-linecap="round"/>
    <path d="m391 539 12-17-13 15zm12-17-13 15 11-15z" fill="#dbdbdb" stroke-linecap="round"/>
    <path d="m390 537 11-15-11 13zm11-15-11 13 9-13z" fill="#dbdbdb" stroke-linecap="round"/>
    <path d="m390 535 9-13-9 11zm9-13-9 11 7-10z" fill="#dbdbdb" stroke-linecap="round"/>
    <path d="m390 533 7-10-7 8zm7-10-7 8 5-7zm-2 1-2 1-2 4zm-2 1-2 4 1-2z" fill="#dbdbdb" stroke-linecap="round"/>
    <path d="m395 524-5 7 1-2z" fill="#dbdbdb" stroke-linecap="round"/>
    <path d="m411 545 9 2-5-8-3-10m-11.534 15.953a11.5 11.5 0 1 1 11.47-16.285M400 545h11" fill="none" stroke-linecap="round" stroke-linejoin="round"/>
    <path d="m579 313-5-8-5 6z" fill="#dbdbdb" stroke-linecap="round"/>
    <path d="m574 305-5 6 1-16zm-5 6 1-16-11 16z" fill="#dbdbdb" stroke-linecap="round"/>
    <path d="m570 295-11 16 10-18zm-11 16 10-18-12 18z" fill="#dbdbdb" stroke-linecap="round"/>
    <path d="m569 293-12 18 11-20zm-12 18 11-20-13 19z" fill="#dbdbdb" stroke-linecap="round"/>
    <path d="m568 291-13 19 11-20zm-13 19 11-20-13 19z" fill="#dbdbdb" stroke-linecap="round"/>
    <path d="m566 290-13 19 11-20zm-13 19 11-20-13 19z" fill="#dbdbdb" stroke-linecap="round"/>
    <path d="m564 289-13 19 11-19zm-13 19 11-19-12 17z" fill="#dbdbdb" stroke-linecap="round"/>
    <path d="m562 289-12 17 10-18zm-12 17 10-18-11 16z" fill="#dbdbdb" stroke-linecap="round"/>
    <path d="m560 288-11 16 9-15zm-11 16 9-15-10 13z" fill="#dbdbdb" stroke-linecap="round"/>
    <path d="m558 289-10 13 7-13zm-10 13 7-13-7 10z" fill="#dbdbdb" stroke-linecap="round"/>
    <path d="m555 289-7 10 6-9zm-7 10 6-9-5 7zm1-2v-2l3-3zm0-2 3-3-2 1z" fill="#dbdbdb" stroke-linecap="round"/>
    <path d="m549 297 5-7-2 2z" fill="#dbdbdb" stroke-linecap="round"/>
    <path d="m574 305 5 8-10-2h-10" fill="none" stroke-linecap="round" stroke-linejoin="round"/>
    <path d="M559.466 311.953a11.5 11.5 0 1 1 11.47-16.285M570 295l4 10" fill="none" stroke-linecap="round" stroke-linejoin="round"/>
  </g>
</svg>