
SVGOMG
Powered by SVGO v2.6.1

Open SVG
Paste markup
Demo
Contribute
About

5.91k → 1.91k 32.26%
<svg xmlns="http://www.w3.org/2000/svg" width="188.547" height="189.48" viewBox="0 0 49.886 50.133">
  <defs>
    <clipPath id="a" clipPathUnits="userSpaceOnUse">
      <path d="M0 0h1181v1181H0V0"/>
    </clipPath>
  </defs>
  <g clip-path="url(#a)" transform="matrix(0 -.11239 -.09437 0 80.663 93.933)" stroke-width="2.569" stroke="#dbdbdb" stroke-miterlimit="10">
    <path d="M647 375v430zm0 0v430l-10-430Zm0 430-10-430v430zm-10-430v222zm0 222V375v193Zm0 10v198zm0 0v198-208Zm0 19v179zm0 0v179-198Zm0-251v193l-1-193zm0 193-1-193v165zm0 58v179l-2-151zm0 179-2-151v151zm-1-430v165l-2-165zm0 165-2-165v138zm-1 114v151l-2-125zm0 151-2-125v125zm-1-430v138l-3-138zm0 138-3-138v112zm-1 167v125l-3-99zm0 125-3-99v99zm-2-430v112l-3-112zm0 112-3-112v88zm-1 219v99l-4-76zm0 99-4-76v76zm-2-430v88l-4-88zm0 88-4-88v66zm-4-88v66l-1-66zm0 66-1-66v62zm2 288v76l-3-62zm0 76-3-62v62zm-3-62v62l-1-56zm0 62-1-56v60zm0-430v62l-4-72zm0 62-4-72v56zm-4-72v56l-2-63zm0 56-2-63v56zm3 328v60l-5-43zm0 60-5-43v56zm-5-42v55zm0 0v55-56zm0-409v56l-3-62zm0 56-3-62v53zm0 353v55l-6-40zm0 55-6-40v51zm-3-470v53l-3-60zm0 53-3-60v52zm-3 377v51-50zm0 51v-50 52zm0-488v52l-3-55zm0 52-3-55v50zm0 386v52l-6-42zm0 52-6-42v49zm-3-493v50l-4-56zm0 50-4-56v49zm-3 401v49l-1-47zm0 49-1-47v49zm-1-506v49l-2-51zm0 49-2-51v49zm0 410v49l-5-43zm0 49-5-43v47zm-2-510v49l-5-53zm0 49-5-53v48zm-3 418v47l-2-46zm0 47-2-46v48zm-2-518v48l-1-48zm0 48-1-48v47zm0 424v48l-4-46zm0 48-4-46v47zm-4-46v47l-3-47zm0 47-3-47v48zm3-521v47l-6-49zm0 47-6-49v47zm-6 427v48l-3-48zm0 48-3-48v48zm0-524v47l-6-46zm0 47-6-46v48zm-3 429v48l-6-51zm0 48-6-51v50zm-3-523v48l-6-47zm0 48-6-47v53zm-3 424v50l-6-58zm0 50-6-58v57zm-3-521v53l-6-53zm0 53-6-53v62zm-3 410v57l-6-68zm0 57-6-68v67zm-3-520v62l-6-61zm0 62-6-61v74zm-3 390v67l-6-82zm0 67-6-82v82zm-3-518v74l-4-73zm0 74-4-73v84zm-3 362v82l-1-85zm0 82-1-85v84zm-1-517v84l-1-84zm0 84-1-84v89zm0 348v84l-4-99zm0 84-4-99v98zm-1-516v89l-5-88zm0 89-5-88v108zm-3 328v98l-4-118zm0 98-4-118v117zm-2-514v108l-4-107zm0 108-4-107v129zm-2 288v117l-4-140zm0 117-4-140v139zm-2-512v129l-3-128zm0 129-3-128v152zm-2 243v139l-3-165zm0 139-3-165v164zm-1-510v152l-3-151zm0 152-3-151v177zm-2 193v164l-2-190zm0 164-2-190v190zm-1-508v177l-2-176zm0 177-2-176v203zm-1 141v190l-2-218zm0 190-2-218v217zm-1-507v203l-1-203zm0 203-1-203v231zm-1-203v260zm0 231V337zm0 29v246zm0 0v246-217Zm0-260v506l-7-504zm0 506-7-504v502zm-7-504v502l-26-492Zm0 502-26-492v482zm-26-492v482l-24-468Zm0 482-24-468v454zm-24-468v454l-22-437Zm0 454-22-437v420zm-22-437v420l-20-400Zm0 420-20-400v380zm-20-400v380l-17-358Zm0 380-17-358v336zm-17-358v336l-14-312Zm0 336-14-312v288zm-14-312v288l-11-263Zm0 288-11-263v238zm-11-263v238l-7-211zm0 238-7-211v184zm-7-211v184l-4-156zm0 184-4-156v128z" fill="#dbdbdb"/>
    <path d="M590.726 853.49c-106.454-7.35-191.318-91.832-199.148-198.251m0-129.478c7.83-106.42 92.694-190.902 199.148-198.252M590.5 376c26.234 0 47.5 96.035 47.5 214.5S616.734 805 590.5 805 543 708.965 543 590.5 564.266 376 590.5 376M623 805h24m0-430h-24m-32.5-47c11.778 0 23.273 16.513 32.928 47.306m24.114 182.137c.61 21.95.61 44.164 0 66.114m-24.114 182.137C613.773 836.487 602.278 853 590.5 853m56.5-48V375" fill="none" stroke-linecap="round" stroke-linejoin="round"/>
    <path d="M668 620h-15l15-59zm-15 0 15-59h-15zm181-122-9-5v20zm-9-5v20l-50 68zm0 20-50 68v19zm-60-68v28zm10 136v19l-12-19zm0 19-12-19v19zm-10-155v28l-9-28zm0 28-9-28v56zm-9-28v56l-7-56zm0 56-7-56v72zm-7-30v46l-5-33zm0 46-5-33v45zm-5-33v45l-6-28zm0 45-6-28v41zm-6-28v41l-7-27zm0 41-7-27v40zm-7-27v40l-8-25zm0 40-8-25v38zm24 26v19l-32-19zm0 19-32-19v19zm-32-70v38l-8-27zm0 38-8-27v40zm0 13v19l-8-19zm0 19-8-19v19zm-8-59v59l-10-44zm0 59-10-44v44zm-10-44v44l-21-19zm0 44-21-19v19zm-21-19v19l-12-19zm0 19-12-19v19z" fill="#dbdbdb" stroke-linecap="round"/>
    <path d="M672 600h83m-40-19h40m-5.393-109.102a273.5 273.5 0 0 1-65.135 109.383m81.098-107.93a370.5 370.5 0 0 1-49.327 107.46M749 471v-26m16 28v-28" fill="none" stroke-linecap="round" stroke-linejoin="round"/>
    <path d="m741 458-11-5v10zm-11-5v10l-11-18zm0 10-11-18v26zm-11-18v26l-2-27zm0 26-2-27v28zm-2-27v28l-3-28zm0 28-3-28v29zm-3-28v29l-3-29zm0 29-3-29v29zm-3-29v29l-3-29zm0 29-3-29v29zm-3-29v29l-2-28zm0 29-2-28v27zm-2-28v27l-3-26zm0 27-3-26v24zm-3-26v24l-2-22zm0 24-2-22v21zm-2-22v21l-2-19zm0 21-2-19v16zm-2-19v16l-1-13zm0 16-1-13v11zm-1-2-1-3v-6zm-1-3v-6 3z" fill="#dbdbdb" stroke-linecap="round"/>
    <path d="M698 464v-11l-1 2z" fill="#dbdbdb" stroke-linecap="round"/>
    <path d="m730 453 11 5-11 5-11 8" fill="none" stroke-linecap="round" stroke-linejoin="round"/>
    <path d="M719.75 471.058a14.5 14.5 0 1 1 0-25.116M719 445l11 8m-46 128h-12m0 0v19m83-19v19m8-19v19m0 0h12l59-102m0 0-9-5-50 88h-12m2-136h-16M391 654V526" fill="none" stroke-linecap="round" stroke-linejoin="round"/>
  </g>
</svg>