
SVGOMG
Powered by SVGO v2.6.1

Open SVG
Paste markup
Demo
Contribute
About

9.6k → 3.52k 36.64%
<svg xmlns="http://www.w3.org/2000/svg" width="188.944" height="189.195" viewBox="0 0 49.992 50.058">
  <defs>
    <clipPath id="a" clipPathUnits="userSpaceOnUse">
      <path d="M0 0h1181v1181H0V0"/>
    </clipPath>
  </defs>
  <g clip-path="url(#a)" transform="matrix(0 -.0737 -.075 0 69.945 70.986)" stroke-width="3.559" stroke="#dbdbdb" stroke-miterlimit="10">
    <path d="M927 375v430l-23-430Zm0 430-23-430v430zm-23-430v308l-24-308Zm0 308-24-308v308zm0 87v35l-24-35zm0 35-24-35v35zm-24-430v430L659 375Zm0 430L659 375v430zM659 595v210zm0 0v210-217Zm0-220v213zm0 213V375v207Zm0 13v204zm0 0v204-210Zm0-226v207zm0 207V375v201Zm0 25v198zm0 0v198-204Zm0-232v201zm0 201V375v195Zm0 37v192zm0 0v192-198Zm0-238v195zm0 195V375v189Zm0 49v186zm0 0v186-192Zm0-244v189zm0 189V375v183Zm0 61v180zm0 0v180-186Zm0-250v183zm0 183V375v177Zm0 73v174zm0 0v174-180Zm0-256v177zm0 177V375v171Zm0 85v168zm0 0v168-174Zm0-262v171l-1-171zm0 171-1-171v165zm0 91v168l-1-162zm0 168-1-162v162zm-1-430v165zm0 165V375v159Zm0 109v156zm0 0v156-162Zm0-274v159zm0 159V375v153Zm0 121v150zm0 0v150-156Zm0-280v153l-1-153zm0 153-1-153v147zm0 127v150l-1-144zm0 150-1-144v144zm-1-430v147zm0 147V375v141Zm0 145v138zm0 0v138-144Zm0-292v141zm0 141V375v135Zm0 156v133zm0 0v133-138Zm0-297v135l-1-135zm0 135-1-135v130zm0 162v133l-1-127zm0 133-1-127v127zm-1-430v130zm0 130V375v124Zm0 179v121zm0 0v121-127Zm0-309v124l-1-124zm0 124-1-124v118zm0 185v121l-1-115zm0 121-1-115v115zm-1-430v118zm0 118V375v113Zm0 202v110zm0 0v110-115Zm0-320v113l-1-113zm0 113-1-113v107zm0 207v110l-1-104zm0 110-1-104v104zm-1-430v107zm0 107V375v101Zm0 224v99zm0 0v99-104zm0-331v101l-1-101zm0 101-1-101v96zm0 230v99l-1-93zm0 99-1-93v93zm-1-430v96zm0 96v-96 90zm0 241v93l-1-88zm0 93-1-88v88zm0-430v90l-1-90zm0 90-1-90v85zm-1 258v82zm0 0v82-88zm0-348v85l-1-85zm0 85-1-85v80zm0 263v82l-1-77zm0 82-1-77v77zm-1-430v80zm0 80v-80 75zm0 273v77l-1-72zm0 77-1-72v72zm0-430v75l-1-75zm0 75-1-75v69zm-1 283v72l-1-67zm0 72-1-67v67zm0-430v69l-1-69zm0 69-1-69v64zm-1 299v62zm0 0v62-67zm0-368v64l-1-64zm0 64-1-64v59zm0 304v62l-1-57zm0 62-1-57v57zm-1-211v-6 10zm0-219v59zm0 59v-59 54zm0 314v57l-1-52zm0 57-1-52v52zm0-217v10l-1-53zm0 10-1-53v84zm0-223v54l-1-54zm0 54-1-54v50zm-1 116v84l-1-90zm0 84-1-90v104zm0 124v52l-1-47zm0 52-1-47v47zm0-430v50l-1-50zm0 50-1-50v45zm-1 333v47l-1-42zm0 47-1-42v42zm0-430v45l-1-45zm0 45-1-45v40zm-1 347v38zm0 0v38-42zm0-392v40l-1-40zm0 40-1-40v35zm1 124v104l-2-146zm0 104-2-146v184zm-1 124v38l-1-33zm0 38-1-33v33zm-1-308v184l-1-190zm0 184-1-190v200zm0-306v35l-1-35zm0 35-1-35v31zm0 362v33l-1-29zm0 33-1-29v29zm-1-430v31l-1-31zm0 31-1-31v27zm0 370v29l-1-24zm0 29-1-24v24zm-1-430v27l-1-27zm0 27-1-27v22zm0 379v24l-1-20zm0 24-1-20v20zm-1-430v22l-1-22zm0 22-1-22v18zm0 388v20l-1-16zm0 20-1-16v16zm-1-430v18l-1-18zm0 18-1-18v14zm3 98v200l-4-238zm0 200-4-238v273zm-3 98v16l-1-12zm0 16-1-12v12zm-1-430v14l-1-14zm0 14-1-14v10zm0 64v273l-1-279zm0 273-1-279v287zm0 67v12l-1-8zm0 12-1-8v8zm-1-358v287l-1-293zm0 287-1-293v298zm-1-293v145zm0 145V441v139Zm0 0v153-137Zm0 153V602v138Zm1-364v10l-1-10zm0 10-1-10v6zm-1 56v139-140Zm0 139V440v129Zm0 22v138-121Zm0 138V619v123Zm0-300v129-132Zm0 129V437v116Zm1 228v8l-1-4zm0 8-1-4v4zm-1-186v123l-1-107zm0 123-1-107v110zm0-367v6l-1-6zm0 6-1-6v2zm0 56v116l-1-120zm0 116-1-120v103zm0 248v4h-2zm0 4h-2zm-2 0zm1-430v2l-1-2zm0 2-1-2zm-1-2zm1 260v110l-1-93zm0 110-1-93v98zm0-312v103l-1-110zm0 103-1-110v94zm-1 116v98l-1-83zm0 98-1-83v90zm0-324v94l-2-102zm0 94-2-102v87zm-1 147v90l-1-74zm0 90-1-74v82zm-1-339v87-92zm0 87v-92 84zm0-92v84l-1-87zm0 84-1-87v80zm0 186v82l-2-71zm0 82-2-71v79zm-2-71v79-76zm0 79v-76 77zm1-363v80l-2-87zm0 80-2-87v72zm-1 207v77l-2-62zm0 77-2-62v70zm-1-371v72l-2-81zm0 72-2-81v68zm-1 237v70l-2-57zm0 70-2-57v65zm-1-388v68l-2-77zm0 68-2-77v64zm-2-77v64l-2-69zm0 64-2-69v63zm1 276v65l-3-53zm0 65-3-53v63zm-3-410v63l-1-67zm0 63-1-67v61zm0 294v63l-1-56zm0 63-1-56v61zm-1-56v61-59zm0 61v-59 60zm0-59v60l-1-58zm0 60-1-58v60zm-1-58v60-59zm0 60v-59 60zm0-58v59zm0 0v59-60zm0 0v59l-1-58zm0 59-1-58v59zm-1-58v59-57zm0 59v-57 59zm2-434v61l-3-68zm0 61-3-68v56zm-2 316v59l-1-57zm0 59-1-57v58zm-1-57v58-56zm0 58v-56 57zm0-56v57l-1-56zm0 57-1-56v58zm-1-56v58-56zm0 58v-56 57zm0-56v57zm0 57v-57zm0-57v57l-1-55zm0 57-1-55v56zm-1-55v56-55zm0 56v-55 56zm2-449v56l-3-64zm0 56-3-64v54zm-2 338v56l-1-54zm0 56-1-54v56zm-1-54v56-55zm0 56v-55 56zm0-55v56l-1-54zm0 56-1-54v55zm-1-54v55-53zm0 55v-53 54zm0-53v54zm0 54v-54zm0-54v54l-1-53zm0 54-1-53v54zm1-463v54l-2-61zm0 54-2-61v54zm-2-61v54zm0 54v-54zm0 363v54-53zm0 54v-53 54zm0-471v54l-1-55zm0 54-1-55v53zm0 364v54l-1-52zm0 54-1-52v53zm-1-420v-53zm0-53v53zm0 0v53-54zm0 53v-54 53zm0 368v53-52zm0 53v-52 53zm0-475v53l-1-54zm0 53-1-54v53zm0 370v53l-1-52zm0 53-1-52v53zm-1-477v53-54zm0 53v-54 52zm0 372v53-51zm0 53v-51 52zm0-51v53zm0 52v-52zm0-480v52l-1-53zm0 52-1-53v52zm0 376v53l-1-52zm0 53-1-52v52zm-1-482v52-53zm0 52v-53 52zm0 378v52-51zm0 52v-51 52zm0-483v52l-1-53zm0 52-1-53v52zm0 380v52l-1-51zm0 52-1-51v52zm-1-485v52-53zm0 52v-53 52zm0-53v52-1zm0 52v-52zm0 383v52-51zm0 52v-51 52zm0-487v51l-1-52zm0 51-1-52v51zm0 385v52l-1-50zm0 52-1-50v51zm-1-489v51-52zm0 51v-52 51zm0 388v51-50zm0 51v-50 51zm0-50v51-50zm0 51v-50 51zm0-492v51l-1-52zm0 51-1-52v51zm0 391v51l-1-51zm0 51-1-51v51zm-1-494v51-52zm0 51v-52 51zm0 392v51-50zm0 51v-50 51zm0-495v51l-1-51zm0 51-1-51v50zm0 394v51l-1-50zm0 51-1-50v50zm-1-496v50-51zm0 50v-51 50zm0-51v50zm0 50v-50zm0 397v50-49zm0 50v-49 50zm0-497v50l-1-51zm0 50-1-51v50zm0 398v50l-1-49zm0 50-1-49v50zm-1-499v50-51zm0 50v-51 50zm0 400v50-49zm0 50v-49 50zm0-501v50l-1-50zm0 50-1-50v49zm0 402v50l-1-49zm0 50-1-49v49zm-1-49v50zm0 49v-49zm0-503v50zm0 0v50-49zm0 455v49zm0 0v49-50zm0-455v50l-1-51zm0 50-1-51v50zm0 405v49l-1-49zm0 49-1-49v50zm-1-505v50zm0 50v-50 49zm0 407v49zm0 0v49-50zm0-457v49l-1-50zm0 49-1-50v49zm-1-50v49zm0 49v-49zm1 409v49l-1-48zm0 49-1-48v49zm-1-507v49-50zm0 49v-50 49zm0 410v49-48zm0 49v-48 49zm0-509v49l-1-49zm0 49-1-49v49zm0 412v49l-1-49zm0 49-1-49v49zm-1-49v49-48zm0 49v-48 49zm0-510v49-50zm0 49v-50 49zm0 462v-49zm0-49v49zm0-463v49l-1-49zm0 49-1-49v48zm0 414v49l-1-48zm0 49-1-48v48zm-1-512v48l-1-49zm0 48-1-49v49zm0 416v48l-1-48zm0 48-1-48v49zm-1-513v49zm0 49v-49 48zm0 417v48zm0 0v48-49zm0-418v-48zm0-48v48zm0 0v48l-1-49zm0 48-1-49v48zm0 418v48l-1-48zm0 48-1-48v49zm-1-467v-48zm0-48v48zm0 468v48zm0 0v48-49zm0-468v48l-1-49zm0 48-1-49v48zm0 420v48l-1-47zm0 48-1-47v48zm-1-47v48zm0 48v-48zm0-470v-48zm0-48v48zm0 518v-48zm0-48v48zm0-470v48l-1-48zm0 48-1-48v48zm0 422v48l-1-48zm0 48-1-48v48zm-1-518v48-49zm0 48v-49 48zm0 422v48-47zm0 48v-47 48zm0-519v48l-1-48zm0 48-1-48v48zm-1-48v48zm0 48v-48zm1 424v48l-1-48zm0 48-1-48v48zm-1-520v48zm0 48v-48 47zm0 425v47zm0 0v47-48zm0-473v47l-1-48zm0 47-1-48v48zm0 426v47l-1-47zm0 47-1-47v48zm-1-47v48l-1-48zm0 48-1-48v48zm0-522v48l-1-48zm0 48-1-48v48zm-1 474v-48zm0-48v48zm0-474v48zm0 48v-48 47zm0 427v47zm0 0v47-48zm0-475v47l-1-47zm0 47-1-47v47zm0 428v47l-1-47zm0 47-1-47v47zm-1-523v48zm0 0v48-47zm0 476v47zm0 47v-47 48zm0-475v-48zm0-48v48zm0 0v48l-1-48zm0 48-1-48v48zm0 428v48l-1-48zm0 48-1-48v48zm-1-476v-48zm0-48v48zm0 524v-48zm0-48v48zm0-476v48l-1-48zm0 48-1-48v48zm0 428v48l-1-47zm0 48-1-47v47zm-1-47v47zm0 47v-47zm0-524v48zm0 48v-48 47zm0 476v-47zm0-47v47zm0-477v47l-1-47zm0 47-1-47v47zm0 430v47l-1-47zm0 47-1-47v47zm-1-477v-47zm0-47v47zm0 524v-47zm0-47v47zm-1 47Zm0-524Zm1 0v47l-1-47zm0 47-1-47v47zm0 430v47l-1-47zm0 47-1-47v47zm-1-477v-47zm0-47v47zm0 524v-47zm0-47v47zm0 0v47l-2-47zm0 47-2-47v47zm0-524v47l-4-47zm0 47-4-47v48zm-2 430v47l-3-49zm0 47-3-49v49zm-2-524v48l-3-48zm0 48-3-48v50zm-1 427v49l-4-51zm0 49-4-51v51zm-2-524v50l-4-50zm0 50-4-50v53zm-2 423v51l-4-55zm0 51-4-55v55zm-2-524v53l-3-53zm0 53-3-53v57zm-2 416v55l-3-60zm0 55-3-60v60zm-1-524v57l-4-57zm0 57-4-57v63zm-4-57v64zm0 63v-63zm2 401v60l-2-64zm0 60-2-64v64zm-2-64v64l-2-66zm0 64-2-66v65zm0-524v64l-3-63zm0 64-3-63v69zm-2 394v65l-3-73zm0 65-3-73v73zm-1-522v69l-3-69zm0 69-3-69v77zm-2 380v73l-3-81zm0 73-3-81v81zm-1-522v77l-3-77zm0 77-3-77v86zm-2 364v81l-3-91zm0 81-3-91v91zm-1-522v86l-3-85zm0 86-3-85v95zm-2 345v91l-3-102zm0 91-3-102v101zm-1-521v95l-3-95zm0 95-3-95v107zm-2 324v101l-2-113zm0 101-2-113v113zm-1-520v107l-3-107zm0 107-3-107v119zm-3-107v122zm0 119V330zm2 288v113l-2-122zm0 113-2-122v122zm-2-122v122l-1-125zm0 122-1-125v125zm0-520v122l-2-122zm0 122-2-122v132zm-1 273v125l-2-138zm0 125-2-138v137zm-1-520v132l-2-131zm0 132-2-131v144zm-1 250v137l-2-152zm0 137-2-152v152zm-1-518v144l-2-144zm0 144-2-144v159zm-1 222v152l-2-166zm0 152-2-166v166zm-1-518v159l-1-159zm0 159-1-159v174zm-1 193v166l-1-182zm0 166-1-182v182zm0-518v174l-2-174zm0 174-2-174v189zm-1 162v182l-1-197zm0 182-1-197v197zm-1-518v189l-1-188zm0 189-1-188v204zm0 132v197l-1-214zm0 197-1-214v213zm-1-517v204l-1-204zm0 204-1-204v221zm0 99v213l-1-229zm0 213-1-229v229zm-1-516v221zm0 221V332v237Zm0-221v248zm0 237V332zm0 33v246zm0 0v246-229Zm0-270v248zm0 248V332v254Zm0 6v262zm0 0v262-246Zm0-254v516l-7-515zm0 516-7-515v514zm-7-515v514l-18-510Zm0 514-18-510v506zm-18-510v506l-17-501Zm0 506-17-501v496zm-17-501v496l-18-490Zm0 496-18-490v484zm-18-490v484l-16-477Zm0 484-16-477v470zm-16-477v470l-17-462Zm0 470-17-462v454zm-17-462v454l-15-445Zm0 454-15-445v436zm-15-445v436l-15-426Zm0 436-15-426v416zm-15-426v416l-15-405Zm0 416-15-405v394zm-15-405v394l-94-423Zm0 394-94-423v452zm-94-423v452l-3-454zm0 452-3-454v456zm-3-454v456l-4-456zm0 456-4-456v456zm-4-456v456l-3-456zm0 456-3-456v456zm-3-456v456l-4-456zm0 456-4-456v456zm-4-456v456l-3-454zm0 456-3-454v452zm-3-454v452l-3-450zm0 452-3-450v448zm-3-450v448l-3-446zm0 448-3-446v444zm-3-446v444l-2-441zm0 444-2-441v438zm-2-441v438l-2-435zm0 438-2-435v432zm-2-435v432l-1-428zm0 432-1-428v424zm-1-428v424-421Zm0 424V381v418Z" fill="#dbdbdb"/>
    <path d="m405 787-94 29m.986 1.057A19.5 19.5 0 0 1 284 799.5m-1-.5V381m1 .5a19.5 19.5 0 0 1 27.986-17.557M311 364l94 29m185.866 460a293.5 293.5 0 0 1-184.924-65.288m0-394.424A293.5 293.5 0 0 1 590.866 328m-.366 48c26.234 0 47.5 96.035 47.5 214.5S616.734 805 590.5 805 543 708.965 543 590.5 564.266 376 590.5 376M635 805h292m0-430H635" fill="none" stroke-linecap="round" stroke-linejoin="round"/>
    <path d="M959 855h-18l18-530zm-18 0 18-530h-18z" fill="#dbdbdb" stroke-linecap="round"/>
    <path d="M590.5 328c11.778 0 23.273 16.513 32.928 47.306M904 770v-87h-24v87h24m-280.572 35.694C613.773 836.487 602.278 853 590.5 853" fill="none" stroke-linecap="round" stroke-linejoin="round"/>
  </g>
</svg>