
SVGOMG
Powered by SVGO v2.6.1

Open SVG
Paste markup
Demo
Contribute
About

7.63k → 2.76k 36.18%
<svg xmlns="http://www.w3.org/2000/svg" width="189.298" height="189.51" viewBox="0 0 50.085 50.141">
  <defs>
    <clipPath id="a" clipPathUnits="userSpaceOnUse">
      <path d="M0 0h1181v1181H0V0"/>
    </clipPath>
  </defs>
  <g clip-path="url(#a)" transform="matrix(0 -.10771 -.11568 0 93.326 88.676)" stroke-width="2.37" stroke="#dbdbdb" stroke-miterlimit="10">
    <path d="M727 384v412l-19-412Zm0 412-19-412v412zm-19-412v194l-3-194zm0 194-3-194v169zm0 24v194l-3-169zm0 194-3-169v169zm-3-412v169l-8-169zm0 169-8-169v146zm0 74v169l-8-146zm0 169-8-146v146zm-8-412v146l-10-146Zm0 146-10-146v123zm0 120v146l-10-123Zm0 146-10-123v123zm-10-412v123l-14-123Zm0 123-14-123v103zm0 166v123l-14-103Zm0 123-14-103v103zm-14-412v103l-17-103Zm0 103-17-103v85zm0 206v103l-17-85zm0 103-17-85v85zm-17-412v85l-20-85zm0 85-20-85v69zm0 242v85l-20-69zm0 85-20-69v69zm-20-412v69l-21-69zm0 69-21-69v57zm0 274v69l-21-57zm0 69-21-57v57zm-21-412v57l-23-57zm0 57-23-57v48zm0 298v57l-23-48zm0 57-23-48v48zm-23-412v48l-24-48zm0 48-24-48v43zm0 316v48l-24-43zm0 48-24-43v43zm-24-412v43l-25-43zm0 43-25-43v41zm0 326v43l-25-41zm0 43-25-41v41zm-25-412v41l-24-41zm0 41-24-41v43zm0 330v41l-24-43zm0 41-24-43v43zm-24-412v43l-24-43zm0 43-24-43v48zm0 326v43l-24-48zm0 43-24-48v48zm-24-412v48l-23-48zm0 48-23-48v57zm0 316v48l-23-57zm0 48-23-57v57zm-23-412v57l-22-57zm0 57-22-57v69zm0 298v57l-22-69zm0 57-22-69v69zm-22-412v69l-19-69zm0 69-19-69v85zm0 274v69l-19-85zm0 69-19-85v85zm-19-412v85l-17-85zm0 85-17-85v103zm0 242v85l-17-103Zm0 85-17-103v103zm-17-412v103l-14-103Zm0 103-14-103v123zm0 206v103l-14-123Zm0 103-14-123v123zm-14-412v123l-11-123Zm0 123-11-123v146zm0 166v123l-11-146Zm0 123-11-146v146zm-11-412v146l-7-146zm0 146-7-146v169zm0 120v146l-7-169zm0 146-7-169v169zm-7-412v169l-4-169zm0 169-4-169v194zm0 74v169l-4-194zm0 169-4-194v194zm-4-412v412l-19-412Zm0 412-19-412v412z" fill="#dbdbdb"/>
    <path d="M359 796V384h368v412H359" fill="none" stroke-linecap="round" stroke-linejoin="round"/>
    <path d="m650 587-2 4v16zm-2 4v16l-5-1zm0 16-5-1v20zm-5-1v20-17zm0 20v-17 19zm0-17v19l-8-5zm0 19-8-5v21zm-8-5v21l-3-15zm0 21-3-15v19zm-3-15v19l-8-8zm0 19-8-8v19zm-8-8v19l-6-12zm0 19-6-12v18zm-6-12v18l-8-9zm0 18-8-9v17zm-8-9v17l-8-10zm0 17-8-10v15zm-8-10v15l-9-9zm0 15-9-9v15zm-10-225-9-3v8zm1 216v15l-10-8zm0 15-10-8v12zm-10-8v12l-8-9zm0 12-8-9v12zm0-238v8l-10-11zm0 8-10-11v17zm-10-11v17l-5-17zm0 17-5-17v19zm2 215v12l-13-6zm0 12-13-6v9zm-13-6v9l-6-7zm0 9-6-7v9zm6-247v19l-14-21zm0 19-14-21v20zm-14-21v20l-4-20zm0 20-4-20v19zm2 222v9l-16-5zm0 9-16-5v5zm-16-5v5l-3-5zm0 5-3-5v5zm10-251v19l-16-19zm0 19-16-19v19zm-18 231v-3l-15 1zm2-250v19l-2-19zm0 19-2-19v20zm3 227v5l-5-4zm0 5-5-4v3zm-5-231-15-16v-2zm-15-16v-2h-2z" fill="#dbdbdb" stroke-linecap="round"/>
    <path d="M532 465v-20l-15 2z" fill="#dbdbdb" stroke-linecap="round"/>
    <path d="M532.493 465.484a125.5 125.5 0 0 1 35.526 1.935m81.946 120.355a106.5 106.5 0 0 1-132.63 105.962" fill="none" stroke-linecap="round" stroke-linejoin="round"/>
    <path d="M649.432 587.504C635.097 648.965 580.5 692.586 517.39 692.997M568 466l24-13m-60 12-17-18" fill="none" stroke-linecap="round" stroke-linejoin="round"/>
    <path d="M821 384v286l-15-286Zm0 286-15-286v286zm-15-286v141l-1-141zm0 141-1-141v141zm-1-141v54l-1-54zm0 54-1-54v51zm0 4v83l-1-79zm0 83-1-79v79zm-1-141v51l-1-51zm0 51-1-51v48zm0 11v79l-1-76zm0 79-1-76v76zm-1-141v48l-2-48zm0 48-2-48v44zm0 17v76l-2-73zm0 76-2-73v73zm-2-141v44l-2-44zm0 44-2-44v42zm0 24v73l-2-70zm0 73-2-70v70zm-2-141v42l-3-42zm0 42-3-42v40zm0 29v70l-3-68zm0 70-3-68v68zm-3-141v40l-3-40zm0 40-3-40v38zm0 33v68l-3-66zm0 68-3-66v66zm-3-66v66l-2-66zm0 66-2-66v66zm13 57v11l-15-11zm0 11-15-11v11zm0 57v20l-15-20zm0 20-15-20v20zm-13-286v38l-4-38zm0 38-4-38v37zm-2 37v211l-2-210zm0 211-2-210v210zm-2-286v37l-3-37zm0 37-3-37v37zm0 39v210l-3-210zm0 210-3-210v210zm-3-286v37l-4-37zm0 37-4-37v37zm0 39v210l-4-210zm0 210-4-210v210zm-4-286v37l-4-37zm0 37-4-37v38zm0 39v210l-4-211zm0 210-4-211v211zm-4-286v38l-3-38zm0 38-3-38v40zm0 37v211l-3-213zm0 211-3-213v213zm-3-286v40l-3-40zm0 40-3-40v42zm0 33v213l-3-215zm0 213-3-215v215zm-3-286v42l-2-42zm0 42-2-42v44zm0 29v215l-2-218zm0 215-2-218v218zm-2-286v44l-2-44zm0 44-2-44v48zm0 24v218l-2-221zm0 218-2-221v221zm-2-286v48l-1-48zm0 48-1-48v51zm0 17v221l-1-224zm0 221-1-224v224zm-1-286v51l-1-51zm0 51-1-51v54zm0 11v224l-1-228zm0 224-1-228v228zm-1-286v286l-19-286Zm0 286-19-286v286zm55 20v106l-74-106Zm0 106-74-106v106z" fill="#dbdbdb" stroke-linecap="round"/>
    <path d="M747 796V690h74v106h-74m0-126V384h74v286h-74M515.114 447.796a145.5 145.5 0 0 1 76.838 5.508" fill="none" stroke-linecap="round" stroke-linejoin="round"/>
    <path d="M543.5 425c91.403 0 165.5 74.097 165.5 165.5S634.903 756 543.5 756 378 681.903 378 590.5 452.097 425 543.5 425" fill="none" stroke-linecap="round" stroke-linejoin="round"/>
    <path d="m689 579-1-1v25zm-1-1v25l-3-48zm0 25-3-48v69zm-3-48v69l-1-70zm0 69-1-70v72zm-1-70v72l-7-94zm0 72-7-94v115zm-7-94v115-116Zm0 115V531v118Zm0-116v118l-8-132zm0 118-8-132v146zm-8-132v81-82zm0 81v-82 60zm0-82v60l-3-65zm0 60-3-65v52zm0 22v65l-3-43zm0 65-3-43v49zm-3-43v49l-1-48zm0 49-1-48v49zm0-158v52l-2-54zm0 52-2-54v45zm-1 58v49l-6-29zm0 49-6-29v37zm-1-161v45l-8-55zm0 45-8-55v35zm-8-55v35l-5-42zm0 35-5-42v34zm3 107v37l-8-22zm0 37-8-22v33zm-8-22v33l-3-29zm0 33-3-29v31zm0-197v34l-6-40zm0 34-6-40v29zm-3 134v31l-14-14zm0 31-14-14v26zm-3-205v29l-11-39zm0 29-11-39v27zm-11 162v26l-1-25zm0 26-1-25v27zm0-227v27l-4-30zm0 27-4-30v26zm-1 175v27l-15-13zm0 27-15-13v23zm-3-232v26l-16-36zm0 26-16-36v23zm-12 193v23l-5-20zm0 23-5-20v23zm-4-252v23l-1-23zm0 23-1-23v22zm-1-1-14-8v-6zm-14-8v-6l-6 3z" fill="#dbdbdb" stroke-linecap="round"/>
    <path d="M613 485v-22l-14 8zm0 210v23l-14-15zm0 23-14-15v21zm-14-15v21l-8-18zm0 21-8-18v22zm-8-18v22l-12-17zm0 22-12-17v20zm-12-17v20l-11-18zm0 20-11-18v21zm-11-18v21l-11-19zm0 21-11-19v20zm-11-19v20l-13-19zm0 20-13-19v20zm-13-19v20l-9-20zm0 20-9-20v19zm-9-20v19l-15-22zm0 19-15-22v21zm-15-22v21l-7-22zm0 21-7-22v20zm-11-265-12-12v16zm4 243v20l-16-25zm0 20-16-25v21zm-16-275v16l-4-20zm0 16-4-20v22zm0 234v21l-5-23zm0 21-5-23v21zm-4-275v22l-5-19zm0 22-5-19v21zm-1 230v21l-17-30zm0 21-17-30v23zm-17-30v23l-2-24zm0 23-2-24v22zm13-263v21l-17-14zm0 21-17-14v24zm-17-14v24l-2-22zm0 24-2-22v23zm2 208v22l-17-36zm0 22-17-36v25zm-17-36v25l-1-27zm0 25-1-27v27zm13-241v23l-16-12zm0 23-16-12v26zm-16-12v26l-1-25zm0 26-1-25v27zm2 177v27l-13-42zm0 27-13-42v30zm-3-229v27l-13-15zm0 27-13-15v31zm-10 160v30l-5-37zm0 30-5-37v33zm-3-205v31l-5-27zm0 31-5-27v35zm-2 137v33l-7-45zm0 33-7-45v36zm-3-197v35l-6-26zm0 35-6-26v37zm-4 117v36l-8-56zm0 36-8-56v46zm-8-56v46zm0 46v-46 0zm6-169v37l-7-28zm0 37-7-28v49zm-7-28v49l-1-48zm0 49-1-48v54zm-1-48v54l-2-50zm0 54-2-50v63zm2 59v46l-4-68zm0 46-4-68v60zm-4-155v63-62zm0 63v-62 64zm0 2v82zm0 0v82-60zm0-64v146l-7-132zm0 146-7-132v119zm-7-132v119l-2-116zm0 119-2-116v112zm-2-116v112l-6-93zm0 112-6-93v74zm-6-93v74l-1-71zm0 74-1-71v66zm-1-5-4-18v-26zm-4-18v-26 2z" fill="#dbdbdb" stroke-linecap="round"/>
    <path d="M402 622v-66l-4 22z" fill="#dbdbdb" stroke-linecap="round"/>
    <path d="M593.465 475.375c55.988 24.3 86.377 85.355 72.007 144.673-14.37 59.318-69.33 99.697-130.232 95.68-60.901-4.017-110.083-51.266-116.536-111.957-6.454-60.692 31.69-117.227 90.385-133.961M509 469l-16-16" fill="none" stroke-linecap="round" stroke-linejoin="round"/>
    <path d="M614.06 463.254c59.842 33.184 88.475 103.58 68.787 169.112-19.689 65.532-82.38 108.49-150.6 103.198-68.221-5.292-123.536-57.404-132.883-125.189-9.347-67.784 29.8-132.922 94.043-156.48M614 463l-21 11m213 176v-57h-15v57h15m0-68v-57h-15v57h15m-19.5-161c10.77 0 19.5 8.73 19.5 19.5s-8.73 19.5-19.5 19.5-19.5-8.73-19.5-19.5 8.73-19.5 19.5-19.5" fill="none" stroke-linecap="round" stroke-linejoin="round"/>
  </g>
</svg>