
SVGOMG
Powered by SVGO v2.6.1

Open SVG
Paste markup
Demo
Contribute
About

6.73k → 2.16k 32.04%
<svg xmlns="http://www.w3.org/2000/svg" width="188.738" height="189.15" viewBox="0 0 49.937 50.046">
  <defs>
    <clipPath id="a" clipPathUnits="userSpaceOnUse">
      <path d="M0 0h1181v1181H0V0"/>
    </clipPath>
  </defs>
  <g clip-path="url(#a)" transform="matrix(0 -.112 -.06348 0 63.621 93.663)" stroke-width="3.138" stroke="#dbdbdb" stroke-miterlimit="10">
    <path d="M647 523v429zm0 0v429l-10-429Zm0 429-10-429v429zm-10-429v222zm0 222V523v193Zm0 9v198zm0 0v198-207Zm0 19v179zm0 0v179-198Zm0-250v193l-1-193zm0 193-1-193v165zm0 57v179l-2-151zm0 179-2-151v151zm-1-429v165l-2-165zm0 165-2-165v137zm-1 113v151l-2-124zm0 151-2-124v124zm-1-429v137l-3-137zm0 137-3-137v111zm-1 168v124l-3-99zm0 124-3-99v99zm-2-429v111l-3-111zm0 111-3-111v87zm-1 219v99l-4-76zm0 99-4-76v76zm-2-429v87l-4-87zm0 87-4-87v65zm-4-87v65l-1-65zm0 65-1-65v61zm2 288v76l-3-61zm0 76-3-61v61zm-3-61v61l-1-55zm0 61-1-55v59zm0-726v358l-4-358zm0 358-4-358v343zm-1 313v59l-5-42zm0 59-5-42v55zm-5-42v55-54zm0 55v-54 55zm2-743v343l-5-343zm0 343-5-343v327zm-2 346v55l-6-41zm0 55-6-41v52zm-6-41v52-50zm0 52v-50 51zm3-755v327l-6-327zm0 327-6-327v314zm-6-327v314l-1-314zm0 314-1-314v311zm3 391v51l-6-42zm0 51-6-42v50zm-6-42v50l-1-48zm0 50-1-48v50zm2-515v62l-5-62zm0 62-5-62v55zm-3 405v50l-5-44zm0 50-5-44v48zm3-766v26l-8-26zm0 26-8-26v26zm-5 223v55l-3-55zm0 55-3-55v52zm-3 418v48l-2-47zm0 48-2-47v49zm0-770v301l-3-301zm0 301-3-301v298zm-2 422v49l-4-46zm0 49-4-46v47zm-4-46v47l-3-47zm0 47-3-47v48zm3-773v298l-6-298zm0 298-6-298v297zm-6 428v48l-3-48zm0 48-3-48v47zm0-774v297l-3-297zm0 297-3-297v298zm-3-48v49l-3-49zm0 49-3-49v49zm0 428v47l-6-51zm0 47-6-51v50zm0-773v26l-8-26zm0 26-8-26v26zm-3 223v49l-5-49zm0 49-5-49v54zm-5-298v303l-1-303zm0 303-1-303v304zm2 419v50l-6-58zm0 50-6-58v57zm-3-772v304l-6-304zm0 304-6-304v314zm-3 410v57l-6-68zm0 57-6-68v68zm-3-771v314l-5-314zm0 314-5-314v324zm-5-65v75l-1-75zm0 75-1-75v78zm2 379v68l-6-82zm0 68-6-82v81zm-6-82v81l-1-84zm0 81-1-84v84zm3-521v78l-5-78zm0 78-5-78v94zm1-327v26l-8-26zm0 26-8-26v26zm-6 223v94l-2-94zm0 94-2-94v100zm1 343v84l-4-99zm0 84-4-99v98zm-3-770v349l-3-349zm0 349-3-349v362zm-1 322v98l-4-119zm0 98-4-119v118zm-2-769v362l-4-362zm0 362-4-362v384zm-2 288v118l-4-141zm0 118-4-141v140zm-2-768v384l-3-384zm0 384-3-384v408zm-2 243v140l-3-165zm0 140-3-165v164zm-1-767v408l-3-408zm0 408-3-408v434zm-2 194v164l-2-191zm0 164-2-191v190zm-1-766v434l-2-434zm0 434-2-434v462zm-1 141v190l-2-218zm0 190-2-218v218zm-1-765v462l-1-462zm0 462-1-462v490zm-1-462v519zm0 490V226zm0 29v246zm0 0v246-218Zm0 246V226zm0-765v765zm0 258v507l-7-504zm0 507-7-504v502zm-7-504v502l-20-495Zm0 502-20-495v486zm-20-495v486l-6-483zm0 486-6-483v481zm-6-483v481l-19-470Zm0 481-19-470v459zm-19-470v459l-5-456zm0 459-5-456v453zm-5-456v453l-18-440Zm0 453-18-440v426zm-18-440v426l-4-422zm0 426-4-422v419zm-4-422v419l-17-403Zm0 419-17-403v386zm-17-403v386l-3-382zm0 386-3-382v380zm-3-382v380l-15-361Zm0 380-15-361v341zm-15-361v341l-2-338zm0 341-2-338v336zm-2-338v336l-13-315Zm0 336-13-315v293zm-13-315v293l-1-290zm0 293-1-290v288zm-1-290v288l-10-265Zm0 288-10-265v240zm-10-265v240l-1-238zm0 240-1-238v237zm-1-238v237l-7-211zm0 237-7-211v185zm-7-211v185-184Zm0 185V646v183Zm0-184v183l-4-156zm0 183-4-156v129z" fill="#dbdbdb"/>
    <path d="M590.726 1000.49c-106.454-7.35-191.318-91.832-199.148-198.251m0-128.478c6.512-88.513 66.863-163.874 151.813-189.572M590.5 523c26.234 0 47.5 96.035 47.5 214.5S616.734 952 590.5 952 543 855.965 543 737.5 564.266 523 590.5 523M623 952h24m0-429h-24m24.542 181.443c.61 21.95.61 44.164 0 66.114m-24.114 182.137C613.773 983.487 602.278 1000 590.5 1000m56.5-48V523" fill="none" stroke-linecap="round" stroke-linejoin="round"/>
    <path d="M668 767h-15l15-59zm-15 0 15-59h-15zm181-122-9-4v19zm-9-4v19l-50 68zm0 19-50 68v20zm-60-67v28zm10 135v20l-12-20zm0 20-12-20v20zm-10-155v28l-9-28zm0 28-9-28v56zm-9-28v56l-7-56zm0 56-7-56v72zm-7-30v46l-5-34zm0 46-5-34v45zm-5-34v45l-6-27zm0 45-6-27v40zm-6-27v40l-7-27zm0 40-7-27v41zm-7-27v41l-8-26zm0 41-8-26v39zm24 25v20l-32-20zm0 20-32-20v20zm-32-71v39l-8-27zm0 39-8-27v39zm0 12v20l-8-20zm0 20-8-20v20zm-8-59v59l-10-44zm0 59-10-44v44zm-10-44v44l-21-20zm0 44-21-20v20zm-21-20v20l-12-20zm0 20-12-20v20z" fill="#dbdbdb" stroke-linecap="round"/>
    <path d="M672 748h83m-40-20h40m-5.393-109.102a273.5 273.5 0 0 1-65.135 109.383m81.098-106.93a370.5 370.5 0 0 1-49.327 107.46M749 619v-26m16 28v-28" fill="none" stroke-linecap="round" stroke-linejoin="round"/>
    <path d="m741 606-11-5v10zm-11-5v10l-11-18zm0 10-11-18v26zm-11-18v26l-2-27zm0 26-2-27v28zm-2-27v28l-3-29zm0 28-3-29v29zm-3-29v29l-3-29zm0 29-3-29v30zm-3-29v30l-3-30zm0 30-3-30v29zm-3-30v29l-2-28zm0 29-2-28v27zm-2-28v27l-3-25zm0 27-3-25v24zm-3-25v24l-2-22zm0 24-2-22v20zm-2-22v20l-2-18zm0 20-2-18v16zm-2-18v16l-1-14zm0 16-1-14v11zm-1-3-1-2v-6zm-1-2v-6 3z" fill="#dbdbdb" stroke-linecap="round"/>
    <path d="M698 611v-11l-1 3z" fill="#dbdbdb" stroke-linecap="round"/>
    <path d="m730 601 11 5-11 5-11 8" fill="none" stroke-linecap="round" stroke-linejoin="round"/>
    <path d="M719.75 619.058a14.5 14.5 0 1 1 0-25.116M719 593l11 8m-46 127h-12m0 0v20m83-20v20m8-20v20m0 0h12l59-103m0 0-9-4-50 87h-12m2-135h-16M391 802V673m152-189V226h80v297m0-62V264m-16 211V252m-8 223V252m-12 223V252m-8 223V252m-20 223V252m48 0h-8m8 223h-8m-12 0h-8m8-223h-8m-12 223V252m0 223h-8m8-223h-8" fill="none" stroke-linecap="round" stroke-linejoin="round"/>
  </g>
</svg>