
SVGOMG
Powered by SVGO v2.6.1

Open SVG
Paste markup
Demo
Contribute
About

4.61k → 1.23k 26.77%
<svg xmlns="http://www.w3.org/2000/svg" width="189.382" height="189.943" viewBox="0 0 50.107 50.256">
  <defs>
    <clipPath id="a" clipPathUnits="userSpaceOnUse">
      <path d="M0 0h1181v1181H0V0"/>
    </clipPath>
  </defs>
  <g clip-path="url(#a)" transform="matrix(0 -.0798 -.10173 0 86.903 80.339)" stroke-width="2.937" stroke="#dbdbdb" stroke-miterlimit="10">
    <path d="M916 474v256l-59-267Zm0 256-59-267v277zm-59-267v60L567 412Zm0 60L567 412v60zm0 157v60l-290-9zm0 60-290-9v60zM567 412v60l-23-58zm0 60-23-58v54zm0 259v60l-23-56zm0 60-23-56v55zm-23-377v54l-4-54zm0 54-4-54v60zm0 267v55l-4-61zm0 55-4-61v60zm-4-376v60l-11-57zm0 60-11-57v72zm0 255v60l-11-75zm0 60-11-75v73zm-11-372v72l-13-70zm0 72-13-70v93zm0 225v73l-13-96zm0 73-13-96v93zm-13-368v93l-2-92zm0 93-2-92v98zm0 179v93l-2-98zm0 93-2-98v97zm-2-364v98l-8-95zm0 98-8-95v114zm0 168v97l-8-116zm0 97-8-116v114zm-8-360v114l-7-112zm0 114-7-112v137zm0 130v114l-7-140zm0 114-7-140v137zm-7-356v137l-3-136zm0 137-3-136v163zm0 79v137l-3-163zm0 137-3-163v162zm-3-352v351l-8-348zm0 351-8-348v345zm-8-348v345l-24-332Zm0 345-24-332v319zm-24-332v319l-21-302Zm0 319-21-302v286zm-21-302v286l-19-267Zm0 286-19-267v248zm-19-267v248l-16-227Zm0 248-16-227v205zm-16-227v205l-13-181Zm0 205-13-181v157zm-13-181v157l-10-132Zm0 157-10-132v107zm-10-25-6-26v-54zm-6-26v-54l-2 27z" fill="#dbdbdb"/>
    <path d="M385 655V548l-6 27z" fill="#dbdbdb"/>
    <path d="M916 602V474l-349-62" fill="none" stroke-linecap="round" stroke-linejoin="round"/>
    <path d="M857 602v-79l-313-55m372 134v128l-349 61" fill="none" stroke-linecap="round" stroke-linejoin="round"/>
    <path d="M857 602v78l-313 55" fill="none" stroke-linecap="round" stroke-linejoin="round"/>
    <path d="M567.5 792C462.842 792 378 707.158 378 602.5S462.842 413 567.5 413" fill="none" stroke-linecap="round" stroke-linejoin="round"/>
    <path d="M544.613 735.958c-64.817-77.167-64.817-189.749 0-266.916" fill="none" stroke-linecap="round" stroke-linejoin="round"/>
    <path d="M543 600v-2 8zm0-2v8l-1-12zm0 8-1-12v15zm-1-12v15-17zm0 15v-17 20zm0-17v20l-1-23zm0 20-1-23v25zm-1-23v25-28zm0 25v-28 31zm0-28v31l-1-34zm0 31-1-34v37zm-1-34v37l-1-39zm0 37-1-39v41zm-1-39v41l-1-43zm0 41-1-43v45zm-1-43v45l-1-47zm0 45-1-47v49zm-1-47v49l-1-51zm0 49-1-51v53zm-1-51v53l-2-54zm0 53-2-54v56zm-2-54v56l-1-58zm0 56-1-58v59zm-1-58v59l-2-59zm0 59-2-59v60zm-2-59v60l-1-61zm0 60-1-61v61zm-1-61v61l-1-62zm0 61-1-62v63zm-1-62v63l-2-63zm0 63-2-63v63zm-2-63v63l-1-63zm0 63-1-63v63zm-1-63v63l-2-62zm0 63-2-62v61zm-2-62v61l-1-60zm0 61-1-60v60zm-1-60v60l-2-60zm0 60-2-60v59zm-2-60v59l-1-57zm0 59-1-57v56zm-1-57v56l-1-55zm0 56-1-55v53zm-1-55v53l-2-51zm0 53-2-51v49zm-2-51v49l-1-47zm0 49-1-47v45zm-1-47v45l-1-43zm0 45-1-43v41zm-1-43v41l-1-39zm0 41-1-39v37zm-1-39v37l-1-34zm0 37-1-34v31zm-1-34v31-28zm0 31v-28 25zm0-28v25l-1-22zm0 25-1-22v20zm-1-22v20-18zm0 20v-18 15zm0-3-1-3v-8zm-1-3v-8 2z" fill="#dbdbdb" stroke-linecap="round"/>
    <path d="M512 609v-15l-1 4z" fill="#dbdbdb" stroke-linecap="round"/>
    <path d="M527.5 571c8.56 0 15.5 14.103 15.5 31.5s-6.94 31.5-15.5 31.5c-8.56 0-15.5-14.103-15.5-31.5s6.94-31.5 15.5-31.5" fill="none" stroke-linecap="round" stroke-linejoin="round"/>
    <path d="M916 612v-20l79 20zm0-20 79 20v-20z" fill="#dbdbdb" stroke-linecap="round"/>
    <path d="M945 582h20l-20 20zm20 0-20 20h20zm-20 39h20l-20 59zm20 0-20 59h20z" fill="#dbdbdb" stroke-linecap="round"/>
  </g>
</svg>